<svg width="596" height="188" viewBox="0 0 596 188" fill="none" xmlns="http://www.w3.org/2000/svg">
<path d="M85.885 2.83124C68.8975 2.83124 63.655 6.01124 46.525 15.7237C24.8575 28.0087 13.84 33.2587 6.31 39.8437C-4.19 49.0312 1.9225 63.3487 7.6825 70.7962C16.885 82.6912 27.67 83.6812 42.7525 70.8487C46.93 67.2937 57.295 55.5562 57.295 55.5562L57.73 55.6837V157.504C57.73 176.321 59.53 185.171 84.7075 185.171C108.452 185.171 112.968 178.354 112.968 157.526V30.4762C112.968 9.64874 110.388 2.83124 85.885 2.83124Z" fill="white"/>
<path d="M212.057 0.551254C167.282 0.551254 130.052 41.1188 130.052 94.0463C130.052 146.974 161.177 187.451 212.057 187.451C259.84 187.451 294.062 146.884 294.062 94.0463C294.062 41.2088 263.35 0.551254 212.057 0.551254ZM212.057 152.561C194.68 152.561 189.257 125.134 189.257 91.3088C189.257 57.4838 195.79 30.0563 212.057 30.0563C229.637 30.0563 234.857 57.4838 234.857 91.3088C234.857 125.134 228.535 152.561 212.057 152.561Z" fill="white"/>
<path d="M391.518 0.551254C346.743 0.551254 309.513 41.1188 309.513 94.0463C309.513 146.974 340.638 187.451 391.518 187.451C439.3 187.451 473.523 146.884 473.523 94.0463C473.523 41.2088 442.818 0.551254 391.518 0.551254ZM391.518 152.561C374.14 152.561 368.718 125.134 368.718 91.3088C368.718 57.4838 375.25 30.0563 391.518 30.0563C409.098 30.0563 414.318 57.4838 414.318 91.3088C414.318 125.134 407.995 152.561 391.518 152.561Z" fill="white"/>
<path d="M568.007 2.83124C551.02 2.83124 545.777 6.01124 528.647 15.7237C506.98 28.0087 495.962 33.2587 488.432 39.8437C477.932 49.0312 484.045 63.3487 489.805 70.7962C499.007 82.6912 509.792 83.6812 524.875 70.8487C529.052 67.2937 539.417 55.5562 539.417 55.5562L539.852 55.6837V157.504C539.852 176.321 541.652 185.171 566.83 185.171C590.575 185.171 595.09 178.354 595.09 157.526V30.4762C595.09 9.64874 592.51 2.83124 568.007 2.83124Z" fill="white"/>
</svg>
