<svg width="575" height="352" viewBox="0 0 575 352" fill="none" xmlns="http://www.w3.org/2000/svg">
<path classs="numbers" d="M94.369 19.0133C101.669 19.0133 107.01 19.8145 110.393 21.417C113.954 23.0194 116.269 25.601 117.337 29.162C118.583 32.5448 119.207 37.6192 119.207 44.3849V161.895C119.207 168.483 118.494 173.558 117.07 177.118C115.824 180.501 113.331 182.994 109.592 184.596C105.853 186.199 100.334 187 93.0337 187C85.3777 187 79.7693 186.11 76.2083 184.329C72.8255 182.549 70.5999 180.056 69.5316 176.851C68.6414 173.468 68.1962 168.483 68.1962 161.895V65.2163C61.7866 72.3382 57.1574 76.9674 54.3086 79.1039C46.6526 85.6917 40.243 88.9855 35.0796 88.9855C30.6285 88.9855 26.3554 86.5819 22.2603 81.7746C17.8091 75.8991 15.5836 70.2016 15.5836 64.6822C15.5836 60.231 17.364 56.4921 20.925 53.4653C23.4176 51.3287 26.8895 48.9251 31.3407 46.2544C35.7918 43.5837 40.9552 40.6459 46.8307 37.4411C48.2551 36.5509 49.8575 35.6607 51.6379 34.7704C53.4184 33.7021 55.4659 32.5448 57.7805 31.2985L62.8549 28.6278C69.9767 24.7108 75.4071 22.1291 79.1461 20.8828C82.8851 19.6365 87.9594 19.0133 94.369 19.0133ZM211.174 155.219C218.118 155.219 223.192 150.322 226.397 140.53C229.78 130.737 231.472 117.651 231.472 101.271C231.472 65.1273 224.706 47.0556 211.174 47.0556C204.231 47.0556 199.067 52.0409 195.684 62.0115C192.48 71.9821 190.877 85.0685 190.877 101.271C190.877 137.236 197.643 155.219 211.174 155.219ZM137.463 103.674C137.463 88.0063 140.757 73.7626 147.345 60.9432C154.111 48.1239 163.102 38.0643 174.319 30.7644C185.714 23.2864 197.999 19.5475 211.174 19.5475C226.13 19.5475 239.128 23.1974 250.167 30.4973C261.383 37.6192 269.93 47.5898 275.805 60.4091C281.681 73.0504 284.618 87.4721 284.618 103.674C284.618 119.342 281.414 133.586 275.004 146.405C268.772 159.047 260.048 169.106 248.831 176.584C237.614 183.884 225.062 187.534 211.174 187.534C196.218 187.534 183.132 183.884 171.915 176.584C160.876 169.284 152.33 159.314 146.276 146.673C140.401 133.853 137.463 119.52 137.463 103.674ZM373.398 155.219C380.342 155.219 385.416 150.322 388.621 140.53C392.004 130.737 393.695 117.651 393.695 101.271C393.695 65.1273 386.93 47.0556 373.398 47.0556C366.454 47.0556 361.291 52.0409 357.908 62.0115C354.703 71.9821 353.101 85.0685 353.101 101.271C353.101 137.236 359.867 155.219 373.398 155.219ZM299.687 103.674C299.687 88.0063 302.981 73.7626 309.569 60.9432C316.334 48.1239 325.326 38.0643 336.543 30.7644C347.938 23.2864 360.223 19.5475 373.398 19.5475C388.354 19.5475 401.351 23.1974 412.39 30.4973C423.607 37.6192 432.153 47.5898 438.029 60.4091C443.905 73.0504 446.842 87.4721 446.842 103.674C446.842 119.342 443.637 133.586 437.228 146.405C430.996 159.047 422.272 169.106 411.055 176.584C399.838 183.884 387.286 187.534 373.398 187.534C358.442 187.534 345.356 183.884 334.139 176.584C323.1 169.284 314.554 159.314 308.5 146.673C302.625 133.853 299.687 119.52 299.687 103.674ZM537.224 19.0133C544.524 19.0133 549.866 19.8145 553.249 21.417C556.81 23.0194 559.124 25.601 560.192 29.162C561.439 32.5448 562.062 37.6192 562.062 44.3849V161.895C562.062 168.483 561.35 173.558 559.925 177.118C558.679 180.501 556.186 182.994 552.447 184.596C548.708 186.199 543.189 187 535.889 187C528.233 187 522.625 186.11 519.064 184.329C515.681 182.549 513.455 180.056 512.387 176.851C511.497 173.468 511.052 168.483 511.052 161.895V65.2163C504.642 72.3382 500.013 76.9674 497.164 79.1039C489.508 85.6917 483.098 88.9855 477.935 88.9855C473.484 88.9855 469.211 86.5819 465.116 81.7746C460.665 75.8991 458.439 70.2016 458.439 64.6822C458.439 60.231 460.219 56.4921 463.78 53.4653C466.273 51.3287 469.745 48.9251 474.196 46.2544C478.647 43.5837 483.811 40.6459 489.686 37.4411C491.11 36.5509 492.713 35.6607 494.493 34.7704C496.274 33.7021 498.321 32.5448 500.636 31.2985L505.71 28.6278C512.832 24.7108 518.262 22.1291 522.001 20.8828C525.74 19.6365 530.815 19.0133 537.224 19.0133Z" fill="var(--numbers-fill,#00827F)"/>
<path d="M294.132 263.91C293.931 263.91 293.73 263.883 293.522 263.829C292.28 263.494 291.542 262.212 291.878 260.971C295.548 247.344 304.874 232.502 310.108 224.867C313.382 220.09 316.294 214.977 318.401 211.018C316.77 211.663 315.073 212.079 313.523 211.965C310.611 211.985 308.705 210.428 307.169 209.167C305.934 208.154 305.129 207.536 304.136 207.496C304.109 207.496 304.076 207.496 304.049 207.496C301.513 207.496 298.252 211.374 295.87 214.219C295.313 214.883 294.776 215.521 294.26 216.104C291.643 219.077 290.469 220.526 288.127 223.418C286.631 225.256 284.591 227.779 281.391 231.65C280.646 232.556 279.338 232.764 278.351 232.133C277.358 231.509 276.989 230.241 277.486 229.174C277.499 229.141 279.163 225.565 281.653 219.593C284.84 211.931 284.598 208.422 283.424 207.744C280.646 206.147 276.473 210.656 274.239 213.488C273.319 214.648 272.125 216.601 270.87 218.667C266.663 225.565 261.893 233.388 256.21 232.086C254.177 231.623 252.567 230.154 251.668 227.953C249.836 223.458 251.097 216.574 254.801 210.817C260.383 202.162 267.375 199.921 271.394 202.175C273.111 203.142 274.212 204.483 274.675 206.168C278.7 202.611 282.411 201.779 285.745 203.692C289.972 206.121 289.147 211.971 287.758 216.507C288.624 215.474 289.55 214.393 290.771 213.011C291.267 212.448 291.777 211.837 292.307 211.206C295.508 207.395 299.486 202.645 304.317 202.819C306.927 202.913 308.705 204.369 310.134 205.544C311.517 206.677 312.349 207.308 313.556 207.281C313.65 207.281 313.744 207.281 313.838 207.295C315.952 207.496 320.232 205.027 322.601 203.202C323.453 202.544 324.64 202.558 325.479 203.229C326.318 203.9 326.593 205.054 326.143 206.027C325.929 206.49 320.803 217.513 313.966 227.49C309.886 233.442 300.01 248.726 296.393 262.172C296.112 263.212 295.172 263.896 294.146 263.896L294.132 263.91ZM268.039 206.013C265.999 206.013 262.269 207.818 258.706 213.347C255.499 218.318 254.902 223.572 255.969 226.195C256.284 226.967 256.707 227.423 257.23 227.544C259.652 228.094 264.523 220.09 266.871 216.238C267.006 216.017 267.14 215.796 267.274 215.574C270.152 210.623 270.434 208.395 270.166 207.402C270.079 207.073 269.877 206.677 269.099 206.241C268.837 206.094 268.475 206.013 268.039 206.013Z" fill="#F6C45F"/>
<path d="M109.487 231.951C108.869 231.951 108.252 231.709 107.796 231.219C106.91 230.287 106.95 228.811 107.883 227.925C107.93 227.885 112.365 223.658 115.364 218.733C118.35 213.835 119.329 208.528 117.458 207.374C115.445 206.133 110.795 207.911 106.789 212.949C102.515 218.324 97.8724 229.388 97.8255 229.502C97.3894 230.548 96.2689 231.125 95.1618 230.877C94.0547 230.629 93.2898 229.623 93.3435 228.495C93.3435 228.408 93.6052 222.759 93.6454 217.753C86.6541 226.228 78.9583 233.346 71.5846 230.689C69.1222 229.797 67.5253 227.677 67.0959 224.704C66.2102 218.619 70.1688 210.42 76.1068 206.039C81.4073 202.127 88.0094 200.839 92.5317 202.825C94.209 203.563 95.551 204.717 96.5104 206.213C102.039 197.645 108.427 183.622 106.085 176.611C105.427 174.645 104.139 173.457 102.012 172.873C91.7735 170.035 79.7433 185.997 75.9726 192.385C75.3151 193.492 73.8859 193.861 72.7789 193.21C71.6718 192.559 71.3028 191.13 71.9536 190.016C72.5776 188.949 87.4861 164.01 103.253 168.378C106.856 169.378 109.359 171.713 110.506 175.135C114.029 185.689 103.884 204.267 98.2012 211.977C98.3018 213.5 98.3287 215.546 98.3153 217.686C99.7914 214.942 101.475 212.144 103.146 210.044C108.48 203.335 115.371 200.604 119.913 203.402C125.039 206.562 123.221 214.821 119.356 221.155C116.022 226.623 111.298 231.119 111.097 231.307C110.647 231.729 110.07 231.944 109.493 231.944L109.487 231.951ZM87.788 206.562C85.0304 206.562 81.669 207.729 78.8711 209.789C73.8792 213.466 71.1417 220.122 71.7053 224.034C71.9737 225.879 72.8661 226.201 73.1613 226.308C79.2468 228.509 88.459 216.975 93.3368 210.655C92.9678 208.897 92.0821 207.723 90.6463 207.092C89.8277 206.73 88.8549 206.562 87.788 206.562Z" fill="#F6C45F"/>
<path d="M128.535 231.899C127.253 231.899 126.025 231.638 124.912 231.054C123.523 230.329 122.536 229.068 122.067 227.417C120.899 223.331 123.04 216.971 125.676 212.482C127.3 209.725 130.883 205.202 134.674 200.633C132.259 200.465 129.816 199.539 127.683 197.842C124.845 195.581 123.08 192.354 122.718 188.757C122.308 184.711 123.704 180.437 126.757 176.398C130.366 171.621 136.445 168.186 142.611 167.441C146.852 166.931 150.576 167.783 153.098 169.836C154.796 171.219 155.802 173.104 156.017 175.278C156.433 179.612 153.796 185.134 147.952 192.146C147.087 193.186 145.933 194.541 144.611 196.091C144.477 196.245 144.342 196.406 144.201 196.567C144.168 196.607 144.141 196.641 144.108 196.681C142.551 198.506 140.793 200.586 139.028 202.693C141.001 202.814 142.846 203.511 144.295 204.666C146.718 206.591 150.025 211.201 144.973 220.48C142.001 225.935 134.647 231.906 128.541 231.906L128.535 231.899ZM132.836 210.355C131.48 212.133 130.366 213.69 129.689 214.844C127.287 218.93 125.905 223.888 126.542 226.129C126.716 226.733 126.958 226.861 127.065 226.921C129.917 228.411 137.68 224.096 140.867 218.246C143.477 213.455 143.651 210.114 141.383 208.315C139.626 206.913 135.815 206.618 132.862 210.328C132.856 210.342 132.842 210.355 132.836 210.362V210.355ZM144.94 171.957C144.362 171.957 143.772 171.99 143.155 172.064C138.277 172.654 133.298 175.452 130.46 179.203C125.274 186.067 127.28 191.569 130.574 194.192C133.386 196.433 137.7 196.95 140.551 193.649C140.578 193.615 140.605 193.588 140.632 193.555C140.639 193.548 140.645 193.534 140.652 193.528C140.786 193.373 140.914 193.219 141.048 193.065C142.35 191.535 143.497 190.186 144.356 189.153C150.824 181.39 151.522 177.405 151.361 175.721C151.267 174.775 150.884 174.05 150.139 173.446C148.945 172.473 147.107 171.957 144.94 171.957Z" fill="#F6C45F"/>
<path d="M146.121 262.735C145.866 262.735 145.604 262.695 145.349 262.601C144.135 262.172 143.497 260.843 143.927 259.629C147.59 249.222 154.903 238.977 161.358 229.939C162.928 227.739 164.417 225.659 165.766 223.693C172.489 213.89 172.153 209.831 171.899 208.818C171.751 208.241 171.476 207.885 170.973 207.637C167.833 206.067 162.351 208.858 158.506 213.997C154.367 219.526 152.582 227.638 152.562 227.725C152.327 228.819 151.334 229.564 150.227 229.564C149.106 229.537 148.167 228.718 147.979 227.618C147.006 221.767 144.597 211.602 142.283 209.227C141.384 208.301 141.404 206.825 142.33 205.933C143.256 205.034 144.732 205.054 145.624 205.98C146.174 206.543 148.543 209.381 150.804 218.245C151.817 215.91 153.125 213.414 154.776 211.206C160.103 204.094 167.792 200.84 173.059 203.47C174.763 204.322 175.924 205.772 176.414 207.657C177.508 211.877 175.22 218.164 169.617 226.336C168.242 228.342 166.746 230.436 165.162 232.657C158.889 241.439 151.77 251.403 148.335 261.179C147.999 262.138 147.1 262.735 146.134 262.735H146.121Z" fill="#F6C45F"/>
<path d="M212.444 231.649C211.827 231.649 211.209 231.408 210.753 230.918C209.868 229.985 209.908 228.509 210.84 227.623C210.887 227.583 215.322 223.356 218.322 218.431C221.307 213.534 222.287 208.226 220.415 207.072C218.402 205.831 213.752 207.609 209.747 212.648C205.473 218.022 200.83 229.086 200.783 229.2C200.347 230.24 199.226 230.824 198.126 230.576C197.026 230.327 196.254 229.328 196.308 228.194C196.563 222.538 196.113 212.4 193.852 209.273C193.094 208.233 193.329 206.77 194.369 206.019C195.409 205.267 196.871 205.495 197.623 206.535C199.521 209.159 200.387 213.916 200.763 218.344C202.36 215.305 204.238 212.091 206.104 209.743C211.438 203.033 218.328 200.302 222.871 203.1C227.997 206.26 226.178 214.52 222.314 220.854C218.979 226.322 214.256 230.817 214.061 231.005C213.611 231.428 213.034 231.642 212.457 231.642L212.444 231.649Z" fill="#F6C45F"/>
<path d="M180.084 231.899C178.803 231.899 177.581 231.638 176.461 231.054C175.072 230.329 174.086 229.068 173.616 227.417C172.449 223.331 174.589 216.971 177.226 212.482C178.85 209.725 182.432 205.202 186.223 200.633C183.808 200.465 181.366 199.539 179.232 197.842C176.394 195.581 174.629 192.354 174.267 188.757C173.858 184.711 175.253 180.437 178.306 176.398C181.916 171.621 187.995 168.186 194.161 167.441C198.401 166.931 202.125 167.783 204.648 169.836C206.345 171.219 207.352 173.104 207.566 175.278C207.982 179.612 205.345 185.134 199.508 192.146C198.643 193.186 197.482 194.548 196.167 196.091C196.019 196.265 195.872 196.44 195.717 196.621H195.711C194.147 198.466 192.369 200.559 190.591 202.693C192.564 202.814 194.409 203.511 195.858 204.666C198.28 206.591 201.588 211.201 196.536 220.48C193.563 225.935 186.21 231.906 180.104 231.906L180.084 231.899ZM184.385 210.355C183.023 212.133 181.916 213.69 181.238 214.844C178.836 218.93 177.454 223.888 178.091 226.129C178.266 226.733 178.507 226.861 178.615 226.921C181.466 228.411 189.229 224.096 192.416 218.246C195.026 213.455 195.201 210.114 192.933 208.315C191.168 206.913 187.364 206.611 184.412 210.328C184.405 210.342 184.392 210.348 184.385 210.362V210.355ZM196.489 171.957C195.912 171.957 195.321 171.99 194.704 172.064C189.826 172.654 184.848 175.452 182.01 179.203C176.823 186.067 178.829 191.569 182.124 194.192C184.948 196.44 189.276 196.956 192.128 193.615C192.134 193.608 192.141 193.602 192.148 193.588C192.154 193.575 192.168 193.568 192.175 193.555C192.188 193.541 192.195 193.528 192.208 193.514C192.336 193.367 192.463 193.212 192.591 193.065C193.899 191.528 195.04 190.186 195.898 189.153C202.366 181.39 203.064 177.405 202.903 175.721C202.809 174.775 202.427 174.05 201.682 173.446C200.488 172.473 198.649 171.957 196.482 171.957H196.489Z" fill="#F6C45F"/>
<path d="M495.659 231.979C494.579 231.979 493.506 231.798 492.432 231.416C489.97 230.523 488.373 228.397 487.944 225.424C487.058 219.339 491.017 211.14 496.954 206.758C501.443 203.444 506.368 202.343 510.454 203.726C512.299 204.35 514.574 205.678 516.318 208.489C522.041 200.156 529.408 184.791 526.926 177.337C526.268 175.371 524.98 174.184 522.853 173.6C512.621 170.762 500.584 186.724 496.814 193.111C496.156 194.218 494.727 194.587 493.62 193.936C492.513 193.286 492.144 191.856 492.795 190.743C493.418 189.683 508.327 164.737 524.094 169.105C527.697 170.104 530.2 172.439 531.347 175.861C534.984 186.764 524.041 206.228 518.492 213.434C511.474 222.539 503.476 231.979 495.659 231.979ZM506.804 207.798C504.61 207.798 502.134 208.731 499.725 210.509C494.734 214.186 491.989 220.842 492.56 224.753C492.828 226.598 493.72 226.92 494.016 227.028C499.712 229.088 508.132 219.124 513.191 212.656C512.286 210.321 510.836 208.771 508.958 208.14C508.28 207.912 507.555 207.798 506.797 207.798H506.804Z" fill="#F6C45F"/>
<path d="M376.659 231.912C376.418 231.912 376.169 231.871 375.928 231.791C374.714 231.388 374.049 230.087 374.438 228.866C374.512 228.644 375.23 226.524 378.632 219.915C380.88 215.54 381.732 210.971 380.745 208.549C380.35 207.563 379.739 207.261 379.316 207.113C376.626 206.194 373.009 208.724 370.829 211.689C368.829 214.407 367.393 217.312 366.414 219.7C365.555 222.827 364.596 225.182 364.549 225.303C364.086 226.423 362.844 227.007 361.69 226.638C360.536 226.269 359.852 225.081 360.12 223.894C360.161 223.719 360.717 221.331 362.039 218.077C363.079 214.118 363.629 209.824 362.408 207.771C362.12 207.294 361.67 206.785 360.483 206.657C351.774 205.731 347.453 222.679 346.534 229.288C346.366 230.483 345.319 231.361 344.111 231.294C342.904 231.234 341.944 230.268 341.897 229.067C341.877 228.597 341.468 217.372 346.312 204.423C350.814 192.386 360.885 176.612 383.288 169.815C415.454 160.059 433.301 170.936 434.046 171.405C435.133 172.09 435.462 173.532 434.777 174.619C434.093 175.706 432.657 176.035 431.57 175.357C431.375 175.236 414.581 165.199 384.644 174.277C368.125 179.289 356.692 189.977 350.68 206.053C350.606 206.248 350.532 206.442 350.465 206.644C353.142 203.551 356.584 201.551 360.986 202.021C363.381 202.276 365.26 203.443 366.421 205.382C366.924 206.228 367.286 207.221 367.508 208.361C370.741 204.275 375.975 201.048 380.826 202.692C382.792 203.363 384.261 204.778 385.073 206.791C386.871 211.24 385.073 217.587 382.785 222.035C379.578 228.275 378.887 230.288 378.88 230.308C378.551 231.281 377.639 231.898 376.666 231.898L376.659 231.912Z" fill="#F6C45F"/>
<path d="M376.66 231.918C376.062 231.918 375.465 231.689 375.009 231.233C374.097 230.321 374.097 228.845 375.009 227.939L392.964 209.964C393.829 209.099 395.211 209.052 396.137 209.843C397.063 210.642 397.218 212.017 396.493 212.997C394.252 216.029 393.279 221.021 394.326 224.128C394.943 225.966 395.963 226.261 396.298 226.362C399.351 227.248 402.545 224.618 404.444 219.653C406.933 213.138 400.633 206.435 400.572 206.368C399.68 205.435 399.714 203.959 400.646 203.073C401.579 202.181 403.055 202.221 403.941 203.147C404.283 203.509 412.327 212.078 408.798 221.317C405.967 228.724 400.546 232.461 394.99 230.844C392.608 230.153 390.803 228.294 389.904 225.624C389.367 224.027 389.173 222.175 389.28 220.256L378.317 231.233C377.861 231.689 377.263 231.918 376.666 231.918H376.66Z" fill="#F6C45F"/>
<path d="M417.574 266.413C416.232 266.413 414.89 266.238 413.555 265.869C410.308 264.97 407.926 263.011 406.463 260.045C402.162 251.289 407.751 236.065 409.57 231.61C411.066 227.94 414.025 221.66 416.782 215.97L403.994 228.618C403.082 229.524 401.606 229.517 400.7 228.598C399.794 227.685 399.801 226.209 400.72 225.303L423.358 202.914C424.17 202.109 425.444 202.015 426.364 202.686C427.29 203.357 427.591 204.598 427.082 205.618C426.981 205.819 416.997 225.76 413.897 233.368C410.69 241.238 407.919 252.41 410.663 257.985C411.522 259.73 412.878 260.837 414.817 261.374C420.5 262.95 426.102 259.354 429.799 256.06C434.985 251.444 438.857 245.345 440.762 241.178C444.714 232.503 443.533 224.23 439.997 221.358C437.837 226.907 435.629 230.074 433.04 231.416C431.517 232.201 429.859 232.342 428.236 231.812C426.578 231.275 425.176 229.879 424.472 228.074C423.586 225.793 423.908 223.096 425.384 220.493C427.981 215.903 432.248 214.045 437.22 215.152C437.24 215.078 437.267 215.004 437.287 214.93C440.024 206.174 440.615 203.021 440.621 202.994C440.856 201.733 442.064 200.894 443.332 201.116C444.6 201.344 445.439 202.551 445.211 203.819C445.184 203.954 444.593 207.188 441.742 216.319C441.688 216.487 441.634 216.655 441.587 216.816C448.384 220.64 449.941 232.295 445.009 243.11C440.272 253.503 429.141 266.413 417.601 266.413H417.574ZM434.522 219.493C432.362 219.493 430.651 220.593 429.416 222.781C428.645 224.143 428.423 225.424 428.792 226.377C429.054 227.048 429.497 227.323 429.651 227.37C430.101 227.517 430.45 227.484 430.872 227.269C431.973 226.699 433.617 224.854 435.656 219.587C435.267 219.526 434.891 219.493 434.529 219.493H434.522Z" fill="#F6C45F"/>
<path d="M452.625 231.362C451.86 231.362 451.115 230.986 450.672 230.295C445.466 222.156 438.803 219.888 438.736 219.868C437.515 219.466 436.844 218.157 437.24 216.936C437.636 215.715 438.937 215.037 440.158 215.433C440.407 215.514 444.862 216.977 449.666 221.687C449.82 219.587 450.223 217.104 451.041 214.273C453 207.523 456.469 204.537 459.026 203.215C461.488 201.947 464.232 201.686 466.574 202.497C468.727 203.249 470.13 204.852 470.713 207.134C476.222 201.316 481.811 201.404 485.139 203.45C489.534 206.161 489.326 212.421 484.582 220.21C481.247 225.679 476.524 230.174 476.329 230.362C475.397 231.248 473.921 231.207 473.035 230.268C472.149 229.335 472.19 227.859 473.122 226.974C473.169 226.933 477.604 222.706 480.603 217.782C483.093 213.702 484.803 208.724 482.697 207.422C480.516 206.08 476.584 206.966 472.713 211.971C471.391 213.682 470.123 216.158 469.15 218.325C468.204 220.975 467.251 223.015 467.191 223.143C466.661 224.27 465.346 224.78 464.199 224.303C463.051 223.834 462.474 222.539 462.89 221.371C462.951 221.204 463.682 219.15 464.823 216.607C465.252 215.393 465.675 214.058 465.983 212.756C466.265 211.555 467.037 207.597 465.051 206.906C463.917 206.51 462.501 206.677 461.173 207.362C458.703 208.637 456.697 211.555 455.523 215.581C453.168 223.673 454.798 228.161 454.812 228.208C455.235 229.322 454.745 230.59 453.678 231.127C453.343 231.295 452.98 231.375 452.625 231.375V231.362Z" fill="#F6C45F"/>
<path d="M41.7674 311.413C40.4457 311.413 39.2313 311.131 38.151 310.568C36.4065 309.655 35.1586 308.052 34.5547 305.945C33.5416 302.402 34.4138 297.645 36.836 293.532C36.836 293.532 36.836 293.532 36.836 293.526C40.6872 287.044 49.3089 279.462 56.4277 282.911C58.34 283.837 59.7087 285.441 60.3864 287.541C61.4733 290.922 60.6749 295.458 58.2058 299.994C56.4747 303.167 53.187 306.529 49.631 308.756C46.813 310.521 44.1292 311.42 41.7674 311.42V311.413ZM40.855 295.901C39.1172 298.86 38.3859 302.382 39.0434 304.663C39.2916 305.529 39.721 306.126 40.3115 306.441C43.163 307.931 50.9259 303.617 54.113 297.766C55.9178 294.445 56.6223 291.077 55.9514 288.963C55.6696 288.084 55.1596 287.474 54.4015 287.105C50.3959 285.166 43.8206 290.916 40.855 295.901Z" fill="#F6C45F"/>
<path d="M92.0956 344.444C91.371 344.444 90.6598 344.108 90.2035 343.477C90.2035 343.471 89.915 343.095 89.3581 342.478C88.4792 341.525 86.8354 339.942 84.2119 338.049C83.8832 337.821 83.5343 337.593 83.1787 337.365C76.8784 333.353 69.4845 331.38 61.158 331.508C41.3583 331.803 35.6552 336.661 35.5948 336.708C34.6689 337.6 33.2129 337.56 32.3138 336.627C31.4215 335.701 31.4684 334.205 32.3943 333.313C33.0452 332.682 39.3924 327.16 61.0842 326.838C62.8019 326.811 64.4457 326.871 66.0157 326.999C63.56 324.61 61.8089 321.752 60.789 318.451C59.0043 312.694 59.7356 306.736 61.1446 301.825C61.2453 300.651 61.5271 299.47 62.0034 298.336C62.151 297.98 62.3792 297.678 62.6543 297.443C63.9156 294.303 65.2307 292.002 65.7742 291.103C69.4309 284.95 76.8851 280.046 83.4806 283.119C85.2787 283.957 86.6072 285.48 87.3117 287.527C88.4523 290.828 87.8485 295.189 85.6545 299.497C81.1927 308.253 75.409 312.835 69.3638 312.419C67.5254 312.292 65.8144 311.567 64.4256 310.366C64.3451 312.667 64.5732 314.942 65.2374 317.076C66.6733 321.712 70.0347 325.254 75.2279 327.609C79.8642 329.71 83.4672 331.843 86.2315 333.769C89.962 336.238 92.2902 338.707 93.3436 339.948C93.7596 340.438 93.9676 340.733 94.0078 340.787C94.7392 341.84 94.4842 343.276 93.4375 344.021C93.0282 344.309 92.5586 344.45 92.0889 344.45L92.0956 344.444ZM65.7742 302.637C65.7473 303.764 66.0224 304.851 66.586 305.763C67.3174 306.951 68.458 307.682 69.706 307.769C75.3755 308.145 79.8575 300.637 81.5147 297.383C83.1116 294.25 83.6349 291.137 82.917 289.05C82.6285 288.218 82.1588 287.641 81.5281 287.346C77.5628 285.501 72.4434 289.023 69.7865 293.498C68.2634 296.014 66.794 299.201 65.7742 302.63V302.637Z" fill="#F6C45F"/>
<path d="M257.237 351.992C256.989 351.992 256.734 351.951 256.486 351.864C255.265 351.448 254.614 350.126 255.03 348.905C255.204 348.395 259.331 336.365 265.966 326.167C266.597 325.201 267.335 324.14 268.12 323.013C270.75 319.229 276.232 311.345 274.219 309.487C272.334 307.742 266.704 309.487 263.068 311.352C262.672 311.567 262.417 311.701 262.363 311.728C261.236 312.325 259.834 311.896 259.23 310.775C258.626 309.655 259.029 308.246 260.149 307.628C260.27 307.561 260.491 307.44 260.8 307.279C263.692 305.723 269.972 302.133 272.414 299.832C275.742 296.698 276.628 293.565 276.353 291.666C276.185 290.499 275.601 289.66 274.635 289.177C271.307 287.513 267.389 290.345 265.564 292.653C261.518 297.779 260.901 303.106 260.901 303.16C260.793 304.153 260.062 304.978 259.089 305.193C258.11 305.407 257.103 304.985 256.586 304.126L251.085 295.008C250.42 293.907 250.776 292.471 251.876 291.807C252.977 291.143 254.413 291.499 255.077 292.599L257.754 297.041C258.599 294.873 259.901 292.304 261.9 289.768C265.215 285.567 271.267 282.286 276.715 285.01C279.063 286.185 280.573 288.312 280.962 290.995C281.546 294.954 279.54 299.53 275.608 303.234C275.205 303.609 274.742 304.005 274.226 304.408C275.393 304.696 276.473 305.22 277.386 306.065C282.385 310.681 276.601 318.994 271.951 325.677C271.186 326.771 270.468 327.811 269.878 328.716C263.564 338.418 259.485 350.301 259.445 350.415C259.116 351.388 258.21 351.998 257.237 351.998V351.992Z" fill="#F6C45F"/>
<path d="M7.54879 342.598C7.15293 342.598 6.77049 342.504 6.39475 342.309C5.60974 341.9 5.12666 341.082 5.14007 340.203C5.35478 327.616 15.8753 310.949 20.3841 304.36C23.6583 299.583 26.5703 294.471 28.6771 290.512C27.0466 291.156 25.3424 291.565 23.7992 291.458H23.7389C20.8605 291.458 18.9684 289.908 17.4453 288.66C16.2108 287.647 15.4056 287.03 14.4126 286.989C14.3858 286.989 14.3522 286.989 14.3254 286.989C11.7825 286.989 8.52838 290.868 6.1465 293.712C5.58961 294.377 5.05285 295.014 4.53622 295.598C3.68411 296.564 2.21473 296.658 1.24855 295.806C0.282384 294.954 0.188451 293.484 1.04056 292.518C1.53035 291.955 2.04699 291.344 2.57704 290.713C5.77748 286.902 9.76964 282.159 14.5871 282.326C17.1971 282.42 18.9751 283.876 20.4042 285.05C21.7864 286.184 22.6049 286.808 23.8261 286.788C23.92 286.788 24.0139 286.788 24.1079 286.802C26.2147 286.996 30.5021 284.534 32.8705 282.709C33.7226 282.051 34.9102 282.065 35.7489 282.736C36.5876 283.407 36.8627 284.561 36.4131 285.534C36.1984 285.996 31.0724 297.02 24.2354 306.997C17.3917 316.981 12.6212 326.643 10.7224 334.151C13.9228 330.226 19.5655 322.375 29.1199 306.722C34.3936 298.087 37.4665 292.102 40.4321 286.305C42.2638 282.736 43.9882 279.367 46.095 275.671C50.1475 268.558 56.5014 257.702 59.051 253.368C60.1849 251.436 62.077 250.134 64.2375 249.792C66.2101 249.483 69.3837 249.557 73.2886 251.691C81.1119 255.965 86.285 251.845 86.4997 251.664C87.486 250.852 88.9554 250.979 89.7739 251.966C90.5925 252.945 90.4784 254.401 89.5055 255.227C89.1969 255.495 81.7762 261.634 71.0477 255.777C68.2968 254.274 66.2101 254.193 64.9554 254.388C64.1838 254.509 63.4927 254.992 63.07 255.716C60.5271 260.044 54.1799 270.88 50.1475 277.965C48.0944 281.575 46.3902 284.896 44.5853 288.419C41.7136 294.014 38.4662 300.355 33.1053 309.138C24.4702 323.281 17.8076 333.097 13.3123 338.29C11.0512 340.907 9.22617 342.585 7.56221 342.585L7.54879 342.598Z" fill="#F6C45F"/>
<path d="M519.706 311.588C518.384 311.588 517.17 311.306 516.09 310.742C511.615 308.401 511.232 302.765 514.956 293.975C514.996 293.881 515.043 293.787 515.097 293.693C518.7 287.628 527.328 280.529 534.145 282.985C536.084 283.683 537.507 285.105 538.265 287.091C539.553 290.48 538.761 295.364 536.151 300.161C534.42 303.335 531.132 306.696 527.576 308.924C524.758 310.689 522.075 311.588 519.713 311.588H519.706ZM519.19 295.948C516.781 301.678 516.432 305.663 518.25 306.616C521.108 308.112 528.865 303.791 532.052 297.941C533.964 294.431 534.689 290.828 533.904 288.755C533.635 288.044 533.206 287.608 532.562 287.38C528.811 286.024 522.222 290.942 519.183 295.954L519.19 295.948Z" fill="#F6C45F"/>
<path d="M546.786 311.848C545.518 311.848 544.304 311.58 543.19 311.036C534.615 306.863 540.761 293.531 547.269 279.414C549.779 273.966 554.468 263.466 557.374 256.931C554.777 257.602 551.651 257.675 548.625 255.931C545.089 253.891 543.405 254.039 542.848 254.193C542.009 254.428 541.164 255.099 540.694 255.897C538.728 259.239 531.998 270.725 527.771 278.146C524.551 283.802 522.008 289.069 519.264 295.765C518.774 296.96 517.412 297.53 516.224 297.04C515.03 296.55 514.46 295.188 514.949 294.001C517.734 287.204 520.438 281.608 523.719 275.845C527.959 268.397 534.709 256.89 536.675 253.542C537.755 251.704 539.587 250.268 541.586 249.711C544.109 249 547.175 249.711 550.959 251.898C555.24 254.368 560.567 250.362 560.621 250.322C561.467 249.678 562.647 249.678 563.486 250.342C564.325 250.999 564.607 252.14 564.177 253.113C564.09 253.314 555.321 273.114 551.51 281.373C545.847 293.652 541.103 304.843 545.236 306.849C546.632 307.527 548.276 307.064 549.416 306.554C552.972 304.957 556.723 300.643 557.77 296.939C558.575 294.095 558.246 291.961 557.924 289.894C557.588 287.707 557.24 285.446 558.347 282.937C558.863 281.756 560.245 281.226 561.42 281.742C562.594 282.259 563.13 283.641 562.614 284.815C562.084 286.023 562.231 287.197 562.533 289.177C562.889 291.498 563.338 294.383 562.258 298.208C560.836 303.233 556.132 308.654 551.322 310.815C549.758 311.513 548.235 311.861 546.793 311.861L546.786 311.848Z" fill="#F6C45F"/>
<path d="M421.741 312.077C421.123 312.077 420.506 311.835 420.05 311.346C419.164 310.413 419.204 308.937 420.137 308.051C420.184 308.011 424.619 303.784 427.618 298.859C430.604 293.961 431.583 288.654 429.712 287.5C427.699 286.259 423.049 288.037 419.043 293.076C414.769 298.457 410.126 309.514 410.079 309.628C409.717 310.493 408.878 311.057 407.939 311.064H407.926C406.993 311.064 406.148 310.507 405.785 309.648L402.35 301.637C401.84 300.456 402.39 299.081 403.571 298.577C404.759 298.067 406.128 298.618 406.631 299.799L407.973 302.932C409.831 299.02 412.622 293.653 415.387 290.17C420.721 283.461 427.611 280.73 432.154 283.528C437.28 286.688 435.462 294.948 431.597 301.281C428.262 306.75 423.539 311.245 423.344 311.433C422.895 311.856 422.318 312.07 421.741 312.07V312.077Z" fill="#F6C45F"/>
<path d="M144.027 312.843C143.578 312.843 143.121 312.716 142.725 312.441C141.659 311.723 141.377 310.274 142.101 309.207C142.128 309.167 145.034 304.846 147.576 299.371C151.649 290.608 150.71 288.347 149.791 287.777C147.858 286.582 142.605 288.125 138.458 293.352C134.184 298.727 129.541 309.79 129.494 309.905C128.998 311.092 127.636 311.649 126.441 311.159C125.254 310.663 124.69 309.301 125.187 308.113C125.388 307.637 130.132 296.338 134.802 290.46C140.001 283.919 147.664 281 152.233 283.818C158.224 287.508 153.722 297.203 151.803 301.343C149.093 307.174 146.087 311.642 145.959 311.83C145.51 312.494 144.772 312.857 144.027 312.857V312.843Z" fill="#F6C45F"/>
<path d="M161.559 349.785C159.882 349.785 158.204 349.557 156.527 349.094C153.28 348.195 150.898 346.236 149.435 343.27C145.134 334.514 150.723 319.29 152.535 314.835C154.091 311.011 157.245 304.355 160.096 298.477L145.631 312.212C144.698 313.097 143.222 313.064 142.336 312.124C141.451 311.192 141.491 309.716 142.424 308.83L166.356 286.105C167.175 285.327 168.443 285.246 169.349 285.924C170.261 286.601 170.55 287.829 170.047 288.842C169.946 289.044 159.962 308.984 156.862 316.593C153.655 324.463 150.884 335.635 153.628 341.21C154.487 342.955 155.843 344.062 157.782 344.598C164.357 346.423 174.502 343.337 181.466 328.657C184.016 323.282 184.224 317.989 182.023 314.513C180.205 311.635 176.796 310.112 172.174 310.112C170.885 310.112 169.845 309.072 169.845 307.783C169.845 306.495 170.885 305.455 172.174 305.448C172.294 305.448 184.425 305.308 186.364 298.403C187.84 293.163 182.09 289.983 181.849 289.849C181.137 289.466 180.675 288.742 180.628 287.937C180.581 287.131 180.943 286.36 181.607 285.89C181.788 285.763 199.897 272.84 217.805 250.538C219.395 248.558 220.932 249.377 221.361 249.672C223.186 250.927 222.186 252.799 221.227 254.604C220.643 255.704 219.791 257.227 218.624 259.267C216.51 262.97 213.806 267.58 211.424 271.646C209.948 274.162 208.626 276.423 207.714 278C207.177 278.932 206.13 280.717 204.909 282.784C207.284 282.039 209.78 281.958 212.182 282.817C214.121 283.515 215.544 284.937 216.302 286.923C217.59 290.312 216.799 295.196 214.189 299.994C210.592 306.596 200.588 313.943 194.127 310.575C192.57 309.763 191.463 308.327 190.92 306.421C189.706 302.181 191.443 296.417 193.698 292.58C193.785 292.439 201.81 278.892 203.675 275.665C204.587 274.088 205.902 271.84 207.372 269.331C198.388 278.543 190.725 284.803 186.894 287.755C189.679 290.265 192.329 294.425 190.86 299.658C189.591 304.167 185.975 306.73 182.251 308.193C183.754 309.206 185.009 310.487 185.975 312.017C189.035 316.855 188.927 323.819 185.693 330.649C184.09 334.031 180.507 340.398 174.562 344.988C170.443 348.168 166.028 349.785 161.586 349.785H161.559ZM198.133 294.197C197.858 294.66 197.697 294.935 197.683 294.948C195.684 298.35 194.684 302.731 195.375 305.133C195.657 306.119 196.113 306.361 196.261 306.435C199.112 307.924 206.875 303.61 210.062 297.759C211.974 294.25 212.699 290.647 211.914 288.574C211.646 287.863 211.216 287.427 210.572 287.199C206.312 285.662 200.991 289.419 198.307 293.935C198.253 294.022 198.193 294.109 198.133 294.19V294.197Z" fill="#F6C45F"/>
<path d="M467.956 312.272C466.674 312.272 465.447 312.011 464.333 311.427C462.776 310.615 461.669 309.179 461.126 307.274C459.911 303.04 461.649 297.27 463.903 293.432C463.991 293.291 472.015 279.745 473.88 276.511L475.518 273.679C479.711 266.433 485.454 256.503 487.729 251.82C488.293 250.659 489.688 250.176 490.842 250.739C492.003 251.303 492.486 252.698 491.922 253.853C489.574 258.69 483.784 268.701 479.55 276.014L477.913 278.839C477.376 279.771 476.329 281.556 475.108 283.623C477.483 282.878 479.979 282.791 482.381 283.663C484.32 284.361 485.743 285.783 486.501 287.769C487.789 291.157 486.998 296.042 484.388 300.839C481.415 306.294 474.062 312.266 467.956 312.266V312.272ZM468.365 295.049C468.09 295.512 467.929 295.787 467.916 295.807C465.916 299.209 464.917 303.59 465.608 305.992C465.889 306.978 466.346 307.22 466.493 307.294C469.345 308.783 477.108 304.469 480.295 298.618C482.207 295.109 482.932 291.506 482.147 289.433C481.878 288.729 481.449 288.286 480.805 288.058C476.544 286.514 471.224 290.278 468.54 294.794C468.486 294.881 468.426 294.968 468.365 295.049Z" fill="#F6C45F"/>
<path d="M314.999 313.567C314.415 313.567 313.832 313.352 313.375 312.909C312.463 312.03 312.429 310.581 313.282 309.655C313.382 309.541 314.556 308.125 318.025 302.127C320.488 297.866 321.507 292.264 320.333 289.372C319.87 288.225 319.219 287.923 318.77 287.795C316.294 287.091 312.389 290.345 310.289 293.821C307.303 298.772 305.27 303.845 304.412 306.159C304.183 306.837 304.002 307.32 303.915 307.548C303.466 308.736 302.157 309.346 300.956 308.924C299.762 308.501 299.124 307.199 299.514 305.998C299.54 305.918 299.728 305.348 300.077 304.408C301.815 299.228 303.486 291.385 301.634 288.372C301.231 287.715 300.688 287.393 299.822 287.299C289.49 286.178 285.907 310.668 285.873 310.916C285.712 312.111 284.659 312.983 283.458 312.936C282.25 312.882 281.284 311.916 281.23 310.708C281.21 310.266 280.794 299.698 285.658 287.433C290.167 276.06 300.238 261.071 322.621 254.288C329.425 252.228 336.114 250.94 342.515 250.47C343.79 250.383 344.917 251.336 345.011 252.624C345.105 253.906 344.139 255.026 342.857 255.12C336.805 255.57 330.451 256.791 323.977 258.75C308.726 263.373 297.823 272.431 291.502 285.689C293.891 283.535 296.796 282.28 300.319 282.656C302.613 282.904 304.438 284.031 305.606 285.923C306.371 287.165 306.793 288.694 306.975 290.358C309.726 286.413 314.952 281.851 320.045 283.293C322.165 283.897 323.755 285.387 324.654 287.601C326.674 292.599 324.728 299.832 322.058 304.442C318.287 310.957 316.979 312.513 316.67 312.835C316.214 313.305 315.603 313.547 314.992 313.547L314.999 313.567Z" fill="#F6C45F"/>
<path d="M71.8932 312.265C70.6251 312.265 69.5851 311.252 69.565 309.977C69.5381 308.689 70.5647 307.629 71.8529 307.602C74.1073 307.561 83.2054 301.167 93.9675 290.922C94.8397 290.09 96.2085 290.063 97.121 290.861C98.0267 291.66 98.1743 293.022 97.4497 293.995C95.296 296.9 94.417 301.57 95.4436 304.616C95.8864 305.924 96.6043 306.736 97.5906 307.025C100.375 307.843 104.676 305.374 106.736 299.98C109.258 293.384 103.126 285.628 103.066 285.548C102.26 284.541 102.421 283.078 103.421 282.273C104.421 281.468 105.89 281.622 106.695 282.622C107.017 283.025 114.579 292.525 111.09 301.644C108.312 308.917 101.945 313.151 96.2823 311.5C93.8199 310.782 91.9546 308.87 91.022 306.106C90.4517 304.408 90.2571 302.456 90.398 300.463C84.2118 305.83 76.0397 312.184 71.9334 312.265H71.8865H71.8932Z" fill="#F6C45F"/>
<path d="M220.147 312.681C219.382 312.681 218.637 312.305 218.194 311.614C215.256 307.025 211.874 304.321 209.559 302.865C208.472 302.181 208.144 300.738 208.828 299.651C209.512 298.564 210.955 298.235 212.042 298.92C213.491 299.832 215.296 301.161 217.181 303.006C217.336 300.899 217.738 298.416 218.563 295.592C220.234 289.842 223.307 285.568 227.219 283.548C229.554 282.347 231.996 282.086 234.096 282.817C236.022 283.488 237.786 285.232 238.37 288.285C243.228 283.085 248.656 281.307 252.661 283.77C257.787 286.93 255.969 295.189 252.104 301.523C248.77 306.991 244.046 311.487 243.845 311.674C242.912 312.56 241.436 312.52 240.551 311.581C239.665 310.648 239.705 309.172 240.638 308.286C240.685 308.246 245.12 304.019 248.119 299.094C251.105 294.196 252.084 288.889 250.212 287.735C248.293 286.561 244.247 288.084 240.228 293.284C238.685 295.276 237.229 298.309 236.209 300.678C235.445 302.764 234.78 304.287 234.733 304.395C234.23 305.542 232.908 306.085 231.741 305.629C230.573 305.166 229.983 303.865 230.399 302.684C230.446 302.543 230.996 301.013 231.868 298.98C232.445 297.403 233.076 295.505 233.492 293.74C234.15 290.969 234.049 287.742 232.559 287.218C231.694 286.916 230.527 287.091 229.352 287.695C226.628 289.097 224.327 292.452 223.032 296.893C220.677 304.985 222.307 309.474 222.321 309.521C222.737 310.634 222.254 311.903 221.187 312.439C220.851 312.607 220.489 312.688 220.133 312.688L220.147 312.681Z" fill="#F6C45F"/>
<path d="M330.055 312.347C329.291 312.347 328.546 311.971 328.103 311.28C325.372 307.013 322.259 304.396 320.125 302.953C319.059 302.229 318.777 300.779 319.501 299.713C320.226 298.646 321.675 298.364 322.742 299.089C324.285 300.135 325.741 301.323 327.103 302.651C327.258 300.551 327.66 298.069 328.479 295.244C330.149 289.501 333.222 285.22 337.134 283.201C339.469 282 341.911 281.738 344.011 282.469C345.937 283.14 347.701 284.885 348.285 287.937C353.15 282.738 358.571 280.96 362.577 283.429C367.703 286.589 365.884 294.848 362.02 301.182C358.685 306.65 353.962 311.146 353.767 311.334C352.828 312.219 351.358 312.179 350.473 311.24C349.587 310.307 349.627 308.831 350.56 307.945C350.607 307.905 355.042 303.678 358.041 298.753C361.027 293.855 362.006 288.548 360.134 287.394C358.215 286.213 354.169 287.736 350.15 292.943C348.607 294.935 347.145 297.982 346.125 300.35C345.36 302.423 344.702 303.94 344.649 304.054C344.145 305.201 342.824 305.745 341.656 305.282C340.489 304.819 339.898 303.517 340.314 302.336C340.361 302.195 340.911 300.665 341.784 298.632C342.361 297.056 342.991 295.164 343.407 293.392C344.065 290.621 343.964 287.387 342.475 286.871C341.609 286.569 340.435 286.743 339.268 287.347C336.544 288.749 334.242 292.104 332.954 296.546C330.599 304.637 332.229 309.126 332.243 309.173C332.665 310.287 332.176 311.555 331.109 312.092C330.773 312.259 330.411 312.34 330.055 312.34V312.347Z" fill="#F6C45F"/>
<path d="M469.673 312.077C468.506 312.077 467.499 311.205 467.358 310.018C467.211 308.736 468.123 307.582 469.405 307.428C471.096 307.226 475.195 305.824 483.595 298.652C488.561 294.411 492.58 290.225 492.62 290.184C493.472 289.292 494.867 289.218 495.807 290.017C496.746 290.808 496.907 292.197 496.176 293.183C494.022 296.089 493.143 300.758 494.17 303.811C494.612 305.12 495.33 305.932 496.317 306.22C499.108 307.032 503.402 304.569 505.462 299.175C507.985 292.58 501.852 284.823 501.792 284.743C500.987 283.736 501.148 282.274 502.147 281.469C503.147 280.663 504.616 280.818 505.422 281.818C505.744 282.22 513.305 291.721 509.816 300.839C507.038 308.112 500.671 312.346 495.008 310.695C492.546 309.977 490.681 308.065 489.748 305.301C489.211 303.717 489.01 301.906 489.104 300.054C483.414 305.173 475.464 311.42 469.942 312.071C469.848 312.084 469.76 312.084 469.667 312.084L469.673 312.077Z" fill="#F6C45F"/>
<path d="M413.119 344.444C412.394 344.444 411.683 344.108 411.226 343.477C411.226 343.471 410.938 343.095 410.381 342.478C409.502 341.525 407.858 339.942 405.228 338.049C404.899 337.821 404.551 337.593 404.195 337.365C397.895 333.353 390.474 331.38 382.174 331.508C362.374 331.803 356.671 336.661 356.618 336.708C355.692 337.6 354.236 337.56 353.337 336.627C352.444 335.701 352.491 334.205 353.417 333.313C354.068 332.682 360.415 327.16 382.107 326.838C383.818 326.811 385.469 326.871 387.045 326.999C384.59 324.61 382.839 321.752 381.819 318.451C379.745 311.775 381.067 304.824 382.899 299.55C383.02 299.161 383.154 298.779 383.315 298.396C383.322 298.376 383.328 298.363 383.335 298.343C384.697 294.746 386.213 292.089 386.804 291.103C390.461 284.95 397.915 280.046 404.51 283.119C406.308 283.957 407.637 285.48 408.341 287.527C409.482 290.828 408.878 295.189 406.684 299.497C402.222 308.253 396.432 312.835 390.393 312.419C388.535 312.292 386.824 311.547 385.455 310.319C385.368 312.634 385.596 314.928 386.267 317.076C387.703 321.712 391.064 325.254 396.258 327.609C400.894 329.71 404.497 331.843 407.261 333.769C410.992 336.238 413.327 338.714 414.373 339.948C414.789 340.431 414.997 340.727 415.038 340.787C415.769 341.84 415.514 343.276 414.467 344.021C414.058 344.309 413.588 344.45 413.119 344.45V344.444ZM387.401 300.758C386.79 302.61 386.931 304.509 387.81 305.931C388.488 307.038 389.528 307.689 390.722 307.776C396.385 308.159 400.867 300.644 402.531 297.39C404.128 294.256 404.651 291.143 403.933 289.057C403.645 288.225 403.175 287.648 402.544 287.352C398.579 285.507 393.46 289.03 390.803 293.505C389.689 295.343 388.609 297.537 387.703 299.926C387.676 300.013 387.649 300.107 387.609 300.194C387.582 300.255 387.555 300.322 387.535 300.382C387.488 300.51 387.441 300.637 387.401 300.758Z" fill="#F6C45F"/>
<path d="M465.815 344.444C465.091 344.444 464.379 344.108 463.923 343.477C463.923 343.471 463.635 343.088 463.071 342.471C462.192 341.518 460.555 339.935 457.932 338.049C457.596 337.821 457.254 337.593 456.892 337.358C450.591 333.353 443.204 331.38 434.871 331.501C428.906 331.588 423.639 332.098 419.211 333.011C417.95 333.272 416.715 332.46 416.453 331.199C416.192 329.938 417.004 328.703 418.265 328.441C422.982 327.469 428.544 326.932 434.797 326.838C436.508 326.811 438.159 326.871 439.729 326.999C437.273 324.61 435.522 321.752 434.502 318.451C432.429 311.768 433.75 304.817 435.582 299.544C435.703 299.154 435.837 298.772 435.998 298.396C435.998 298.383 436.012 298.369 436.018 298.349C437.38 294.746 438.897 292.089 439.494 291.103C443.15 284.95 450.598 280.046 457.2 283.119C458.998 283.957 460.327 285.48 461.031 287.527C462.172 290.828 461.568 295.189 459.374 299.497C454.912 308.253 449.109 312.835 443.083 312.419C441.225 312.292 439.514 311.547 438.145 310.319C438.058 312.634 438.286 314.928 438.957 317.069C440.393 321.705 443.754 325.248 448.948 327.603C453.584 329.71 457.194 331.843 459.951 333.762C463.675 336.224 466.003 338.694 467.05 339.935C467.466 340.425 467.68 340.72 467.714 340.774C468.445 341.827 468.19 343.263 467.144 344.008C466.734 344.296 466.265 344.437 465.795 344.437L465.815 344.444ZM440.104 300.745C439.487 302.603 439.628 304.502 440.507 305.931C441.191 307.031 442.225 307.689 443.419 307.776C449.075 308.159 453.564 300.644 455.228 297.39C456.824 294.256 457.348 291.143 456.63 289.057C456.341 288.225 455.872 287.648 455.241 287.352C451.276 285.507 446.156 289.03 443.499 293.505C442.386 295.343 441.305 297.537 440.4 299.919C440.373 300.007 440.346 300.1 440.306 300.188C440.279 300.255 440.252 300.322 440.225 300.389C440.185 300.503 440.145 300.624 440.098 300.738L440.104 300.745Z" fill="#F6C45F"/>
<path d="M227.145 240.031C226.3 240.031 225.481 239.568 225.065 238.763C224.481 237.616 224.931 236.214 226.078 235.623C228.286 234.496 228.97 233.181 229.071 232.087C228.091 232.087 227.407 231.685 227.064 231.436C225.951 230.604 225.461 229.108 225.843 227.706C226.186 226.445 227.205 225.545 228.433 225.411C230.372 225.197 232.191 226.693 232.915 228.209C234.224 230.94 234.707 236.448 228.205 239.776C227.863 239.951 227.501 240.031 227.145 240.031Z" fill="#F6C45F"/>
</svg>
