<svg width="980" height="324" viewBox="0 0 980 324" fill="none" xmlns="http://www.w3.org/2000/svg">
<path d="M510.225 170.965C509.875 170.965 509.526 170.919 509.164 170.825C507.008 170.242 505.725 168.016 506.308 165.859C512.685 142.184 528.888 116.399 537.98 103.133C543.669 94.8336 548.728 85.951 552.388 79.0734C549.556 80.1925 546.606 80.9152 543.914 80.7171C538.854 80.752 535.544 78.0476 532.874 75.8561C530.73 74.0959 529.331 73.0235 527.605 72.9535C527.559 72.9535 527.501 72.9535 527.454 72.9535C523.048 72.9535 517.382 79.6913 513.244 84.6338C512.277 85.7879 511.344 86.8953 510.446 87.9094C505.9 93.0734 503.86 95.5913 499.792 100.615C497.193 103.809 493.649 108.192 488.088 114.919C486.795 116.492 484.521 116.854 482.808 115.758C481.083 114.674 480.442 112.471 481.304 110.617C481.327 110.559 484.218 104.346 488.543 93.971C494.08 80.6588 493.66 74.5622 491.62 73.3849C486.795 70.6105 479.544 78.444 475.662 83.3632C474.065 85.3799 471.99 88.772 469.81 92.3624C462.501 104.346 454.213 117.938 444.34 115.676C440.808 114.872 438.01 112.319 436.448 108.496C433.266 100.685 435.457 88.7254 441.892 78.7237C451.591 63.6863 463.737 59.7928 470.72 63.7096C473.704 65.3882 475.616 67.7196 476.42 70.6455C483.414 64.4673 489.86 63.0218 495.654 66.3441C502.998 70.5639 501.564 80.7287 499.151 88.6088C500.655 86.8137 502.263 84.9369 504.385 82.5355C505.247 81.5564 506.133 80.4956 507.054 79.3998C512.615 72.7787 519.527 64.5255 527.92 64.8286C532.455 64.9918 535.544 67.5214 538.027 69.5614C540.428 71.5314 541.874 72.6272 543.972 72.5805C544.135 72.5805 544.298 72.5805 544.461 72.6038C548.133 72.9535 555.571 68.6638 559.685 65.4931C561.166 64.3507 563.229 64.374 564.686 65.5397C566.143 66.7054 566.621 68.7104 565.84 70.4007C565.467 71.205 556.561 90.3574 544.683 107.691C537.596 118.031 520.436 144.586 514.153 167.946C513.664 169.753 512.032 170.942 510.248 170.942L510.225 170.965ZM464.891 70.3774C461.347 70.3774 454.866 73.5131 448.676 83.1184C443.104 91.7562 442.067 100.884 443.92 105.441C444.468 106.782 445.203 107.575 446.112 107.785C450.32 108.74 458.783 94.8336 462.863 88.1425C463.096 87.7579 463.329 87.3732 463.562 86.9885C468.563 78.3857 469.053 74.5156 468.586 72.7903C468.435 72.2192 468.085 71.5314 466.733 70.7737C466.278 70.5172 465.649 70.3774 464.891 70.3774Z" fill="#F6C45F"/>
<path d="M189.426 115.442C188.354 115.442 187.281 115.023 186.489 114.172C184.95 112.551 185.02 109.987 186.64 108.448C186.722 108.378 194.427 101.034 199.638 92.478C204.825 83.9684 206.527 74.7478 203.275 72.7428C199.777 70.5862 191.699 73.6753 184.74 82.4297C177.314 91.7669 169.248 110.989 169.166 111.187C168.409 113.006 166.462 114.008 164.538 113.577C162.615 113.146 161.286 111.397 161.379 109.439C161.379 109.287 161.834 99.4722 161.904 90.7761C149.757 105.499 136.387 117.867 123.576 113.251C119.298 111.7 116.523 108.017 115.777 102.853C114.239 92.2798 121.116 78.035 131.433 70.423C140.642 63.627 152.112 61.3889 159.969 64.8393C162.883 66.1216 165.215 68.1266 166.882 70.7261C176.487 55.8402 187.584 31.4772 183.516 19.2956C182.374 15.8802 180.135 13.8169 176.44 12.8027C158.652 7.87182 137.751 35.6037 131.2 46.7011C130.057 48.6245 127.574 49.2657 125.651 48.1349C123.727 47.0042 123.086 44.5213 124.217 42.5862C125.301 40.7328 151.203 -2.59612 178.597 4.99255C184.857 6.72944 189.205 10.7861 191.198 16.7311C197.318 35.0675 179.693 67.3456 169.819 80.7394C169.994 83.3856 170.041 86.9409 170.017 90.6595C172.582 85.8918 175.508 81.0309 178.41 77.3822C187.678 65.7253 199.649 60.9809 207.541 65.8419C216.447 71.3323 213.288 85.682 206.573 96.6862C200.78 106.187 192.573 113.997 192.224 114.323C191.443 115.058 190.44 115.431 189.438 115.431L189.426 115.442ZM151.727 71.3323C146.936 71.3323 141.096 73.3606 136.235 76.9393C127.563 83.3273 122.807 94.891 123.786 101.687C124.252 104.893 125.802 105.452 126.315 105.639C136.888 109.462 152.893 89.4239 161.368 78.443C160.727 75.3889 159.188 73.3489 156.693 72.2532C155.271 71.6237 153.581 71.3323 151.727 71.3323Z" fill="#F6C45F"/>
<path d="M222.52 115.352C220.293 115.352 218.16 114.898 216.225 113.883C213.812 112.625 212.099 110.433 211.283 107.565C209.254 100.466 212.973 89.4155 217.554 81.617C220.375 76.826 226.6 68.9692 233.186 61.0309C228.99 60.7394 224.746 59.1308 221.04 56.1816C216.109 52.2532 213.043 46.6462 212.413 40.398C211.702 33.3689 214.127 25.9434 219.431 18.9259C225.702 10.6262 236.263 4.65783 246.976 3.36391C254.343 2.47798 260.813 3.9584 265.196 7.52543C268.145 9.92676 269.894 13.2024 270.267 16.9792C270.99 24.5096 266.408 34.1033 256.255 46.2848C254.751 48.0916 252.746 50.4463 250.45 53.1391C250.217 53.4072 249.984 53.687 249.739 53.9667C249.681 54.0367 249.634 54.095 249.576 54.1649C246.871 57.3356 243.817 60.9493 240.751 64.6095C244.179 64.8194 247.384 66.0317 249.902 68.0367C254.11 71.3822 259.857 79.3905 251.079 95.5121C245.915 104.989 233.139 115.364 222.532 115.364L222.52 115.352ZM229.992 77.9218C227.637 81.0109 225.702 83.7153 224.525 85.7203C220.352 92.8194 217.95 101.434 219.058 105.327C219.361 106.376 219.781 106.598 219.967 106.703C224.921 109.291 238.408 101.795 243.945 91.6304C248.48 83.3073 248.783 77.5021 244.843 74.378C241.789 71.9417 235.168 71.4288 230.039 77.8751C230.027 77.8984 230.004 77.9218 229.992 77.9334V77.9218ZM251.021 11.209C250.019 11.209 248.993 11.2673 247.92 11.3955C239.446 12.4214 230.796 17.2823 225.865 23.7985C216.855 35.7236 220.34 45.2823 226.064 49.8402C230.948 53.7336 238.443 54.6312 243.398 48.896C243.444 48.8377 243.491 48.791 243.537 48.7327C243.549 48.7211 243.561 48.6978 243.572 48.6861C243.806 48.418 244.027 48.1499 244.26 47.8818C246.522 45.224 248.515 42.881 250.007 41.0858C261.244 27.5987 262.457 20.6745 262.177 17.7486C262.014 16.105 261.349 14.846 260.055 13.7969C257.98 12.1066 254.786 11.209 251.021 11.209Z" fill="#F6C45F"/>
<path d="M253.073 168.926C252.63 168.926 252.176 168.856 251.733 168.693C249.623 167.947 248.515 165.639 249.261 163.529C255.626 145.449 268.332 127.649 279.546 111.947C282.274 108.124 284.862 104.51 287.205 101.094C298.885 84.0636 298.302 77.0111 297.859 75.2509C297.603 74.2484 297.125 73.6306 296.251 73.1993C290.795 70.4716 281.271 75.3209 274.592 84.2501C267.4 93.8554 264.299 107.949 264.264 108.1C263.856 110 262.131 111.294 260.207 111.294C258.261 111.248 256.629 109.825 256.302 107.914C254.612 97.7489 250.427 80.0886 246.405 75.962C244.843 74.3534 244.878 71.7888 246.487 70.2385C248.096 68.6764 250.66 68.7114 252.211 70.3201C253.166 71.2992 257.281 76.2301 261.21 91.629C262.97 87.5723 265.243 83.2359 268.111 79.4008C277.366 67.0444 290.725 61.3908 299.876 65.9603C302.837 67.4408 304.853 69.9587 305.704 73.2343C307.604 80.5665 303.629 91.4891 293.896 105.687C291.506 109.173 288.907 112.81 286.156 116.668C275.256 131.927 262.888 149.238 256.92 166.222C256.337 167.889 254.775 168.926 253.097 168.926H253.073Z" fill="#F6C45F"/>
<path d="M368.302 114.921C367.229 114.921 366.157 114.501 365.364 113.651C363.825 112.03 363.895 109.466 365.515 107.927C365.597 107.857 373.302 100.513 378.513 91.9569C383.7 83.4474 385.402 74.2267 382.15 72.2217C378.653 70.0652 370.575 73.1543 363.615 81.9086C356.19 91.2459 348.123 110.468 348.042 110.666C347.284 112.473 345.337 113.487 343.426 113.056C341.514 112.625 340.173 110.888 340.267 108.918C340.709 99.091 339.928 81.4773 336 76.0452C334.683 74.2384 335.091 71.6972 336.898 70.3916C338.705 69.086 341.246 69.4823 342.551 71.2891C345.85 75.847 347.354 84.1118 348.007 91.8054C350.781 86.5248 354.045 80.9411 357.286 76.8612C366.553 65.2042 378.525 60.4598 386.416 65.3208C395.322 70.8112 392.163 85.1609 385.449 96.1651C379.655 105.665 371.449 113.476 371.111 113.802C370.33 114.536 369.327 114.909 368.325 114.909L368.302 114.921Z" fill="#F6C45F"/>
<path d="M312.081 115.352C309.854 115.352 307.732 114.898 305.786 113.883C303.373 112.625 301.659 110.433 300.843 107.565C298.815 100.466 302.533 89.4155 307.115 81.617C309.936 76.826 316.16 68.9692 322.747 61.0309C318.55 60.7394 314.307 59.1308 310.6 56.1816C305.669 52.2532 302.603 46.6462 301.974 40.398C301.263 33.3689 303.688 25.9434 308.991 18.9259C315.263 10.6262 325.824 4.65783 336.537 3.36391C343.904 2.47798 350.374 3.9584 354.757 7.52543C357.706 9.92676 359.454 13.2024 359.827 16.9792C360.55 24.5096 355.969 34.1033 345.827 46.2848C344.324 48.0916 342.307 50.458 340.022 53.1391C339.766 53.4422 339.509 53.7452 339.241 54.06H339.23C336.514 57.2656 333.424 60.9026 330.335 64.6095C333.762 64.8194 336.968 66.0317 339.486 68.0367C343.694 71.3822 349.441 79.3905 340.663 95.5121C335.499 104.989 322.723 115.364 312.115 115.364L312.081 115.352ZM319.553 77.9218C317.186 81.0109 315.263 83.7153 314.086 85.7203C309.912 92.8194 307.511 101.434 308.618 105.327C308.921 106.376 309.341 106.598 309.528 106.703C314.482 109.291 327.969 101.795 333.506 91.6304C338.041 83.3073 338.344 77.5021 334.404 74.378C331.338 71.9417 324.728 71.4172 319.599 77.8751C319.588 77.8984 319.564 77.9101 319.553 77.9334V77.9218ZM340.582 11.209C339.579 11.209 338.553 11.2673 337.481 11.3955C329.006 12.4214 320.357 17.2823 315.426 23.7985C306.415 35.7236 309.901 45.2823 315.624 49.8402C320.532 53.7453 328.051 54.6428 333.005 48.8377C333.016 48.826 333.028 48.8144 333.04 48.7911C333.051 48.7677 333.075 48.7561 333.086 48.7327C333.11 48.7094 333.121 48.6861 333.145 48.6628C333.366 48.4064 333.588 48.1382 333.809 47.8818C336.082 45.2124 338.064 42.881 339.556 41.0858C350.793 27.5987 352.006 20.6745 351.726 17.7486C351.563 16.105 350.898 14.846 349.604 13.7969C347.529 12.1066 344.335 11.209 340.57 11.209H340.582Z" fill="#F6C45F"/>
<path d="M860.354 115.491C858.477 115.491 856.612 115.177 854.747 114.512C850.469 112.962 847.694 109.267 846.948 104.103C845.41 93.5297 852.287 79.2849 862.604 71.6729C870.402 65.9144 878.958 64.0026 886.057 66.4039C889.263 67.488 893.215 69.7961 896.246 74.6804C906.189 60.2024 918.988 33.508 914.675 20.5571C913.533 17.1417 911.295 15.0784 907.6 14.0642C889.823 9.13333 868.91 36.8652 862.359 47.9626C861.216 49.886 858.734 50.5272 856.81 49.3964C854.887 48.2657 854.246 45.7828 855.376 43.8477C856.46 42.0059 882.362 -1.33461 909.756 6.25406C916.016 7.99095 920.364 12.0476 922.357 17.9926C928.675 36.9352 909.663 70.752 900.022 83.2715C887.829 99.09 873.934 115.491 860.354 115.491ZM879.716 73.4797C875.904 73.4797 871.603 75.1 867.418 78.1891C858.745 84.5771 853.977 96.1408 854.968 102.937C855.435 106.142 856.985 106.702 857.498 106.889C867.395 110.467 882.024 93.1566 890.813 81.9193C889.24 77.8627 886.722 75.17 883.458 74.0742C882.281 73.6779 881.022 73.4797 879.704 73.4797H879.716Z" fill="#F6C45F"/>
<path d="M653.606 115.374C653.186 115.374 652.755 115.304 652.335 115.164C650.225 114.464 649.071 112.203 649.747 110.081C649.876 109.697 651.123 106.013 657.033 94.531C660.938 86.9307 662.418 78.9923 660.705 74.7841C660.017 73.0706 658.956 72.546 658.222 72.2896C653.548 70.6926 647.264 75.0872 643.476 80.2396C640.002 84.9607 637.508 90.0081 635.806 94.158C634.314 99.5901 632.647 103.682 632.565 103.892C631.761 105.838 629.604 106.852 627.599 106.211C625.594 105.57 624.405 103.507 624.871 101.444C624.941 101.141 625.909 96.9906 628.205 91.337C630.012 84.4594 630.968 76.999 628.846 73.4319C628.345 72.6043 627.564 71.7184 625.501 71.4969C610.37 69.8882 602.863 99.3337 601.266 110.816C600.975 112.891 599.156 114.418 597.058 114.301C594.96 114.196 593.293 112.518 593.211 110.431C593.176 109.615 592.465 90.113 600.881 67.6151C608.703 46.7026 626.2 19.2971 665.123 7.48856C721.006 -9.46065 752.014 9.43526 753.308 10.2512C755.196 11.4403 755.767 13.9465 754.578 15.8349C753.389 17.7234 750.895 18.2945 749.006 17.1172C748.668 16.9074 719.491 -0.531433 667.478 15.2404C638.778 23.9482 618.915 42.5177 608.47 70.4478C608.342 70.7858 608.214 71.1239 608.097 71.4736C612.748 66.0997 618.728 62.626 626.375 63.442C630.537 63.8849 633.801 65.9132 635.817 69.2821C636.692 70.7508 637.321 72.4761 637.706 74.4578C643.324 67.3587 652.417 61.7517 660.845 64.6076C664.26 65.7733 666.813 68.2329 668.224 71.73C671.348 79.4586 668.224 90.4861 664.249 98.2146C658.677 109.056 657.476 112.553 657.464 112.588C656.893 114.278 655.308 115.35 653.618 115.35L653.606 115.374Z" fill="#F6C45F"/>
<path d="M653.606 115.387C652.568 115.387 651.531 114.991 650.738 114.198C649.153 112.613 649.153 110.048 650.738 108.475L681.932 77.2457C683.436 75.742 685.837 75.6604 687.446 77.0359C689.055 78.4231 689.323 80.8128 688.064 82.5147C684.17 87.7836 682.48 96.4564 684.299 101.854C685.371 105.048 687.143 105.56 687.726 105.735C693.03 107.274 698.578 102.705 701.877 94.0784C706.202 82.7595 695.256 71.1142 695.151 70.9976C693.601 69.3773 693.659 66.8127 695.28 65.274C696.9 63.7236 699.464 63.7936 701.003 65.4023C701.598 66.0317 715.574 80.9177 709.443 96.9693C704.523 109.839 695.105 116.331 685.453 113.522C681.315 112.322 678.179 109.093 676.617 104.453C675.684 101.679 675.346 98.4614 675.533 95.1275L656.485 114.198C655.693 114.991 654.655 115.387 653.618 115.387H653.606Z" fill="#F6C45F"/>
<path d="M724.69 175.312C722.359 175.312 720.027 175.009 717.707 174.368C712.066 172.805 707.927 169.402 705.386 164.249C697.914 149.037 707.624 122.587 710.783 114.847C713.383 108.471 718.523 97.5598 723.314 87.6747L701.096 109.648C699.511 111.222 696.946 111.21 695.373 109.613C693.799 108.028 693.811 105.463 695.408 103.89L734.738 64.9903C736.149 63.5915 738.364 63.4283 739.961 64.594C741.569 65.7597 742.094 67.9162 741.208 69.6881C741.033 70.0378 723.687 104.682 718.302 117.901C712.73 131.575 707.916 150.984 712.683 160.671C714.175 163.701 716.53 165.625 719.899 166.557C729.772 169.297 739.506 163.049 745.929 157.325C754.94 149.305 761.666 138.709 764.976 131.47C771.842 116.397 769.791 102.024 763.647 97.0353C759.894 106.676 756.059 112.178 751.559 114.509C748.913 115.873 746.034 116.118 743.213 115.197C740.334 114.264 737.897 111.84 736.673 108.704C735.135 104.741 735.694 100.054 738.259 95.5316C742.77 87.5582 750.184 84.3292 758.822 86.2526C758.857 86.1244 758.903 85.9962 758.938 85.8679C763.694 70.6556 764.72 65.1768 764.732 65.1302C765.14 62.9387 767.238 61.4816 769.441 61.8663C771.644 62.2626 773.101 64.3609 772.705 66.564C772.658 66.7972 771.633 72.4158 766.678 88.2809C766.585 88.5724 766.492 88.8638 766.41 89.1435C778.219 95.788 780.923 116.036 772.355 134.827C764.125 152.884 744.787 175.312 724.737 175.312H724.69ZM754.135 93.7946C750.382 93.7946 747.409 95.7064 745.265 99.5065C743.924 101.873 743.539 104.099 744.18 105.755C744.635 106.92 745.404 107.398 745.672 107.48C746.453 107.736 747.06 107.678 747.794 107.305C749.706 106.314 752.562 103.109 756.105 93.9579C755.429 93.8529 754.777 93.7946 754.147 93.7946H754.135Z" fill="#F6C45F"/>
<path d="M785.586 114.419C784.257 114.419 782.963 113.767 782.194 112.566C773.148 98.4261 761.573 94.4861 761.456 94.4511C759.335 93.7517 758.169 91.4786 758.857 89.357C759.545 87.2355 761.806 86.0581 763.928 86.7459C764.359 86.8858 772.099 89.427 780.445 97.6102C780.714 93.9615 781.413 89.6484 782.835 84.7292C786.239 73.0023 792.266 67.815 796.707 65.5186C800.985 63.3154 805.753 62.8608 809.821 64.2713C813.563 65.5768 815.999 68.3629 817.013 72.3262C826.584 62.2197 836.294 62.3712 842.076 65.9265C849.711 70.6359 849.35 81.5119 841.108 95.0456C835.315 104.546 827.108 112.356 826.77 112.683C825.15 114.221 822.585 114.151 821.047 112.519C819.508 110.899 819.578 108.335 821.198 106.796C821.28 106.726 828.985 99.382 834.196 90.8258C838.52 83.7384 841.493 75.0889 837.833 72.8275C834.044 70.4961 827.213 72.0348 820.487 80.7309C818.191 83.7034 815.987 88.0048 814.297 91.77C812.654 96.3745 810.998 99.9182 810.893 100.14C809.973 102.098 807.688 102.984 805.694 102.156C803.701 101.34 802.699 99.0906 803.421 97.0623C803.526 96.7709 804.797 93.2038 806.778 88.7858C807.525 86.6759 808.259 84.3562 808.795 82.0948C809.285 80.0082 810.625 73.1306 807.175 71.9299C805.205 71.2421 802.745 71.5336 800.437 72.7226C796.147 74.9374 792.662 80.0082 790.622 87.0023C786.53 101.061 789.363 108.859 789.386 108.941C790.121 110.876 789.27 113.079 787.416 114.011C786.833 114.303 786.204 114.443 785.586 114.443V114.419Z" fill="#F6C45F"/>
<path d="M71.7724 253.497C69.476 253.497 67.3661 253.008 65.4893 252.029C62.4585 250.443 60.2903 247.657 59.2412 243.997C57.481 237.842 58.9964 229.577 63.2045 222.432C63.2045 222.432 63.2045 222.432 63.2045 222.42C69.8956 211.159 84.8748 197.987 97.2428 203.979C100.565 205.587 102.943 208.373 104.12 212.022C106.009 217.897 104.622 225.777 100.332 233.657C97.3244 239.171 91.6125 245.011 85.4343 248.881C80.5384 251.947 75.8756 253.509 71.7724 253.509V253.497ZM70.187 226.546C67.1679 231.687 65.8973 237.807 67.0397 241.77C67.471 243.274 68.217 244.312 69.2428 244.86C74.197 247.447 87.6841 239.952 93.2212 229.787C96.3569 224.017 97.5809 218.165 96.4152 214.493C95.9256 212.966 95.0397 211.905 93.7224 211.264C86.7632 207.895 75.3394 217.885 70.187 226.546Z" fill="#F6C45F"/>
<path d="M159.211 310.882C157.952 310.882 156.716 310.299 155.924 309.203C155.924 309.192 155.423 308.539 154.455 307.466C152.928 305.811 150.072 303.06 145.514 299.773C144.943 299.377 144.337 298.98 143.719 298.584C132.773 291.613 119.927 288.186 105.461 288.407C71.0612 288.92 61.1528 297.36 61.0478 297.441C59.4392 298.992 56.9096 298.922 55.3476 297.302C53.7972 295.693 53.8788 293.093 55.4875 291.543C56.6182 290.447 67.6457 280.854 105.333 280.294C108.317 280.247 111.173 280.352 113.9 280.574C109.634 276.424 106.592 271.458 104.82 265.723C101.719 255.721 102.99 245.37 105.438 236.837C105.612 234.797 106.102 232.745 106.93 230.775C107.186 230.158 107.582 229.633 108.06 229.225C110.252 223.769 112.537 219.771 113.481 218.209C119.834 207.52 132.785 198.998 144.244 204.337C147.368 205.794 149.676 208.441 150.9 211.996C152.881 217.731 151.832 225.308 148.02 232.792C140.269 248.004 130.22 255.966 119.717 255.243C116.523 255.022 113.551 253.763 111.138 251.676C110.998 255.675 111.394 259.626 112.548 263.333C115.043 271.388 120.883 277.543 129.905 281.635C137.96 285.283 144.22 288.99 149.023 292.336C155.504 296.625 159.549 300.915 161.379 303.072C162.102 303.923 162.463 304.436 162.533 304.529C163.804 306.359 163.361 308.854 161.542 310.148C160.831 310.649 160.015 310.894 159.199 310.894L159.211 310.882ZM113.481 238.247C113.434 240.206 113.912 242.094 114.891 243.68C116.162 245.743 118.144 247.013 120.312 247.165C130.162 247.818 137.949 234.774 140.828 229.12C143.602 223.676 144.512 218.267 143.264 214.642C142.763 213.197 141.947 212.194 140.851 211.681C133.962 208.476 125.068 214.595 120.452 222.371C117.806 226.742 115.253 232.279 113.481 238.236V238.247Z" fill="#F6C45F"/>
<path d="M446.124 323.998C445.693 323.998 445.25 323.928 444.819 323.776C442.697 323.054 441.567 320.757 442.289 318.636C442.592 317.75 449.761 296.849 461.29 279.13C462.386 277.452 463.668 275.61 465.032 273.651C469.601 267.077 479.125 253.38 475.628 250.151C472.352 247.12 462.572 250.151 456.254 253.392C455.566 253.765 455.124 253.998 455.03 254.044C453.072 255.082 450.636 254.336 449.586 252.389C448.537 250.442 449.237 247.994 451.183 246.922C451.393 246.805 451.778 246.596 452.314 246.316C457.338 243.611 468.249 237.375 472.492 233.377C478.274 227.933 479.813 222.489 479.335 219.19C479.044 217.162 478.029 215.705 476.351 214.865C470.569 211.974 463.761 216.894 460.591 220.904C453.561 229.81 452.489 239.065 452.489 239.158C452.303 240.884 451.032 242.317 449.342 242.691C447.64 243.064 445.891 242.329 444.994 240.837L435.435 224.995C434.281 223.084 434.899 220.589 436.81 219.435C438.722 218.281 441.217 218.899 442.371 220.81L447.022 228.527C448.491 224.762 450.752 220.298 454.226 215.891C459.984 208.594 470.499 202.894 479.964 207.626C484.044 209.666 486.667 213.362 487.343 218.024C488.358 224.902 484.872 232.852 478.041 239.287C477.342 239.939 476.537 240.627 475.64 241.327C477.668 241.828 479.545 242.737 481.13 244.206C489.815 252.226 479.766 266.669 471.688 278.279C470.359 280.179 469.112 281.986 468.086 283.56C457.117 300.416 450.029 321.06 449.96 321.258C449.388 322.949 447.815 324.009 446.124 324.009V323.998Z" fill="#F6C45F"/>
<path d="M12.3218 307.678C11.634 307.678 10.9696 307.515 10.3168 307.177C8.95294 306.466 8.11364 305.044 8.13695 303.517C8.50997 281.648 26.7881 252.692 34.6215 241.245C40.3101 232.946 45.3693 224.063 49.0295 217.185C46.1969 218.304 43.236 219.016 40.5549 218.829H40.45C35.4492 218.829 32.1619 216.136 29.5158 213.968C27.3709 212.208 25.9721 211.135 24.2469 211.065C24.2002 211.065 24.1419 211.065 24.0953 211.065C19.6773 211.065 14.0237 217.803 9.88549 222.746C8.91797 223.9 7.98541 225.007 7.08783 226.021C5.60739 227.7 3.05452 227.863 1.37592 226.383C-0.302682 224.902 -0.46588 222.349 1.01455 220.671C1.86551 219.692 2.7631 218.631 3.684 217.535C9.24436 210.914 16.1802 202.672 24.5499 202.964C29.0845 203.127 32.1736 205.657 34.6565 207.697C37.0578 209.667 38.48 210.751 40.6016 210.716C40.7648 210.716 40.928 210.716 41.0912 210.739C44.7514 211.077 52.2002 206.799 56.3151 203.628C57.7956 202.486 59.8588 202.509 61.316 203.675C62.7731 204.841 63.251 206.846 62.47 208.536C62.097 209.34 53.1911 228.493 41.3126 245.827C29.4225 263.172 21.1345 279.958 17.8355 293.002C23.3959 286.183 33.1994 272.544 49.7989 245.349C58.9613 230.346 64.3001 219.948 69.4525 209.876C72.6349 203.675 75.6307 197.823 79.291 191.4C86.3318 179.044 97.3709 160.183 101.801 152.653C103.771 149.295 107.058 147.034 110.811 146.439C114.239 145.903 119.752 146.031 126.537 149.738C140.129 157.164 149.116 150.006 149.489 149.692C151.203 148.281 153.756 148.503 155.178 150.216C156.6 151.918 156.402 154.448 154.711 155.881C154.175 156.348 141.283 167.014 122.643 156.837C117.864 154.226 114.239 154.086 112.059 154.424C110.718 154.634 109.517 155.473 108.783 156.732C104.365 164.251 93.3376 183.077 86.3318 195.387C82.7648 201.658 79.8039 207.429 76.6682 213.548C71.679 223.27 66.037 234.286 56.7231 249.545C41.7206 274.118 30.1453 291.172 22.3351 300.195C18.4067 304.741 15.236 307.655 12.3451 307.655L12.3218 307.678Z" fill="#F6C45F"/>
<path d="M902.132 253.802C899.836 253.802 897.726 253.313 895.849 252.333C888.074 248.265 887.409 238.473 893.879 223.203C893.949 223.039 894.031 222.876 894.124 222.713C900.384 212.175 915.374 199.842 927.218 204.109C930.587 205.321 933.058 207.792 934.375 211.243C936.613 217.129 935.238 225.616 930.703 233.95C927.696 239.464 921.984 245.304 915.806 249.174C910.91 252.24 906.247 253.802 902.144 253.802H902.132ZM901.235 226.63C897.05 236.585 896.444 243.509 899.603 245.164C904.568 247.764 918.044 240.257 923.581 230.092C926.903 223.995 928.162 217.736 926.798 214.134C926.332 212.898 925.586 212.14 924.467 211.744C917.951 209.389 906.503 217.934 901.223 226.641L901.235 226.63Z" fill="#F6C45F"/>
<path d="M949.18 254.253C946.977 254.253 944.867 253.787 942.932 252.842C928.034 245.592 938.712 222.429 950.019 197.903C954.379 188.438 962.527 170.195 967.574 158.841C963.063 160.006 957.631 160.135 952.374 157.104C946.23 153.56 943.305 153.817 942.337 154.085C940.88 154.493 939.411 155.658 938.595 157.046C935.18 162.851 923.488 182.807 916.144 195.7C910.549 205.527 906.131 214.678 901.363 226.311C900.512 228.386 898.146 229.377 896.082 228.526C894.007 227.675 893.016 225.309 893.867 223.245C898.705 211.437 903.403 201.715 909.103 191.702C916.47 178.762 928.197 158.771 931.613 152.954C933.489 149.76 936.672 147.265 940.146 146.298C944.529 145.062 949.856 146.298 956.43 150.098C963.867 154.388 973.123 147.429 973.216 147.359C974.685 146.24 976.737 146.24 978.194 147.394C979.651 148.536 980.141 150.518 979.395 152.208C979.243 152.558 964.007 186.957 957.386 201.307C947.548 222.639 939.306 242.083 946.487 245.568C948.912 246.746 951.768 245.941 953.749 245.056C959.927 242.281 966.444 234.786 968.262 228.351C969.661 223.409 969.09 219.702 968.53 216.111C967.947 212.311 967.341 208.383 969.265 204.023C970.162 201.971 972.564 201.051 974.604 201.948C976.643 202.846 977.576 205.247 976.678 207.287C975.758 209.385 976.014 211.425 976.539 214.864C977.156 218.897 977.937 223.91 976.061 230.554C973.589 239.285 965.418 248.704 957.06 252.458C954.344 253.67 951.698 254.276 949.191 254.276L949.18 254.253Z" fill="#F6C45F"/>
<path d="M731.929 254.652C730.856 254.652 729.784 254.232 728.991 253.381C727.452 251.761 727.522 249.196 729.143 247.657C729.224 247.588 736.929 240.244 742.14 231.687C747.327 223.178 749.029 213.957 745.777 211.952C742.28 209.796 734.202 212.885 727.243 221.639C719.817 230.988 711.75 250.199 711.669 250.397C711.039 251.901 709.582 252.88 707.95 252.891H707.927C706.307 252.891 704.838 251.924 704.208 250.432L698.24 236.513C697.354 234.462 698.31 232.072 700.362 231.198C702.425 230.312 704.803 231.268 705.677 233.319L708.009 238.763C711.238 231.967 716.087 222.642 720.889 216.592C730.157 204.935 742.128 200.19 750.02 205.051C758.926 210.542 755.767 224.891 749.053 235.896C743.259 245.396 735.053 253.206 734.715 253.533C733.934 254.267 732.931 254.64 731.929 254.64V254.652Z" fill="#F6C45F"/>
<path d="M249.436 255.982C248.655 255.982 247.862 255.76 247.174 255.282C245.321 254.035 244.831 251.517 246.09 249.664C246.137 249.594 251.184 242.087 255.602 232.574C262.678 217.35 261.046 213.422 259.449 212.431C256.092 210.356 246.965 213.037 239.761 222.118C232.335 231.455 224.269 250.678 224.187 250.876C223.324 252.939 220.958 253.907 218.883 253.056C216.82 252.193 215.841 249.827 216.703 247.763C217.053 246.936 225.294 227.306 233.408 217.094C242.442 205.729 255.754 200.658 263.692 205.554C274.102 211.965 266.28 228.809 262.946 236.002C258.237 246.132 253.015 253.895 252.793 254.221C252.012 255.375 250.73 256.005 249.436 256.005V255.982Z" fill="#F6C45F"/>
<path d="M279.896 320.164C276.981 320.164 274.067 319.767 271.153 318.963C265.511 317.401 261.373 313.997 258.832 308.845C251.359 293.632 261.07 267.183 264.217 259.442C266.921 252.798 272.4 241.234 277.354 231.023L252.222 254.885C250.602 256.423 248.037 256.365 246.499 254.733C244.96 253.113 245.03 250.548 246.65 249.01L288.23 209.527C289.653 208.175 291.856 208.035 293.429 209.213C295.015 210.39 295.516 212.523 294.642 214.283C294.467 214.633 277.121 249.278 271.736 262.497C266.164 276.17 261.349 295.579 266.117 305.266C267.609 308.297 269.964 310.22 273.333 311.153C284.757 314.323 302.382 308.961 314.482 283.456C318.911 274.119 319.273 264.921 315.449 258.883C312.29 253.882 306.369 251.236 298.337 251.236C296.099 251.236 294.292 249.429 294.292 247.191C294.292 244.953 296.099 243.146 298.337 243.134C298.547 243.134 319.623 242.89 322.991 230.895C325.556 221.791 315.566 216.265 315.146 216.032C313.911 215.368 313.106 214.109 313.025 212.71C312.943 211.311 313.573 209.97 314.727 209.154C315.041 208.933 346.504 186.482 377.616 147.734C380.379 144.295 383.048 145.717 383.794 146.23C386.965 148.41 385.228 151.662 383.561 154.798C382.547 156.71 381.066 159.356 379.038 162.9C375.366 169.334 370.668 177.343 366.53 184.407C363.966 188.778 361.669 192.706 360.084 195.446C359.151 197.066 357.333 200.167 355.211 203.757C359.338 202.463 363.674 202.323 367.847 203.816C371.216 205.028 373.688 207.499 375.005 210.95C377.243 216.836 375.867 225.323 371.333 233.657C365.085 245.128 347.704 257.892 336.479 252.04C333.774 250.63 331.851 248.135 330.906 244.825C328.797 237.457 331.816 227.444 335.732 220.776C335.884 220.532 349.826 196.996 353.066 191.389C354.652 188.65 356.936 184.745 359.489 180.385C343.881 196.39 330.568 207.266 323.912 212.395C328.75 216.755 333.354 223.982 330.802 233.074C328.598 240.908 322.315 245.361 315.846 247.902C318.457 249.662 320.637 251.889 322.315 254.547C327.631 262.951 327.444 275.051 321.826 286.918C319.04 292.793 312.815 303.855 302.487 311.829C295.329 317.354 287.659 320.164 279.942 320.164H279.896ZM343.438 223.586C342.96 224.39 342.68 224.868 342.657 224.891C339.183 230.801 337.446 238.413 338.647 242.587C339.136 244.3 339.929 244.72 340.185 244.848C345.14 247.436 358.627 239.94 364.164 229.776C367.486 223.679 368.745 217.419 367.381 213.817C366.915 212.582 366.169 211.824 365.05 211.427C357.648 208.758 348.404 215.286 343.741 223.131C343.648 223.283 343.543 223.434 343.438 223.574V223.586Z" fill="#F6C45F"/>
<path d="M812.222 254.987C809.995 254.987 807.862 254.532 805.927 253.518C803.223 252.107 801.299 249.613 800.355 246.302C798.245 238.947 801.264 228.922 805.181 222.254C805.333 222.009 819.274 198.474 822.515 192.855L825.359 187.936C832.645 175.346 842.623 158.094 846.575 149.958C847.554 147.941 849.979 147.102 851.984 148.081C854 149.06 854.84 151.485 853.86 153.49C849.781 161.894 839.721 179.286 832.365 191.993L829.521 196.9C828.588 198.52 826.77 201.621 824.648 205.212C828.775 203.918 833.111 203.766 837.284 205.281C840.653 206.494 843.124 208.965 844.442 212.416C846.68 218.302 845.304 226.789 840.77 235.123C835.606 244.6 822.83 254.975 812.222 254.975V254.987ZM812.933 225.063C812.455 225.868 812.175 226.346 812.152 226.381C808.678 232.291 806.941 239.903 808.142 244.076C808.632 245.789 809.424 246.209 809.681 246.337C814.635 248.925 828.122 241.43 833.659 231.265C836.981 225.168 838.24 218.908 836.876 215.306C836.41 214.082 835.664 213.313 834.545 212.917C827.143 210.236 817.899 216.775 813.236 224.62C813.143 224.772 813.038 224.923 812.933 225.063Z" fill="#F6C45F"/>
<path d="M546.479 257.237C545.465 257.237 544.451 256.864 543.658 256.095C542.073 254.568 542.014 252.05 543.495 250.441C543.67 250.243 545.71 247.783 551.736 237.362C556.014 229.96 557.786 220.226 555.746 215.202C554.942 213.209 553.811 212.684 553.03 212.463C548.729 211.239 541.944 216.892 538.296 222.931C533.108 231.533 529.576 240.346 528.084 244.368C527.688 245.545 527.373 246.384 527.222 246.781C526.441 248.844 524.168 249.905 522.081 249.17C520.006 248.436 518.899 246.175 519.575 244.088C519.621 243.948 519.948 242.957 520.554 241.325C523.573 232.326 526.476 218.699 523.258 213.465C522.559 212.323 521.615 211.763 520.111 211.6C502.159 209.653 495.934 252.201 495.876 252.633C495.596 254.708 493.766 256.223 491.68 256.141C489.581 256.048 487.903 254.369 487.809 252.271C487.775 251.502 487.052 233.142 495.503 211.833C503.337 192.075 520.834 166.033 559.721 154.248C571.541 150.669 583.163 148.431 594.284 147.615C596.499 147.464 598.457 149.119 598.621 151.357C598.784 153.583 597.105 155.53 594.879 155.693C584.364 156.474 573.325 158.596 562.076 162C535.58 170.031 516.637 185.768 505.656 208.802C509.806 205.061 514.854 202.881 520.974 203.533C524.96 203.965 528.131 205.923 530.159 209.21C531.488 211.367 532.222 214.025 532.537 216.916C537.317 210.061 546.397 202.135 555.245 204.641C558.929 205.69 561.691 208.278 563.253 212.125C566.762 220.809 563.382 233.375 558.742 241.384C552.191 252.703 549.918 255.407 549.382 255.966C548.589 256.782 547.528 257.202 546.467 257.202L546.479 257.237Z" fill="#F6C45F"/>
<path d="M124.112 254.979C121.909 254.979 120.102 253.219 120.067 251.004C120.02 248.766 121.804 246.924 124.042 246.877C127.959 246.807 143.765 235.698 162.463 217.898C163.979 216.453 166.357 216.406 167.942 217.793C169.516 219.18 169.772 221.547 168.513 223.237C164.771 228.284 163.244 236.398 165.028 241.69C165.797 243.963 167.044 245.373 168.758 245.875C173.596 247.297 181.068 243.007 184.646 233.635C189.029 222.176 178.375 208.701 178.27 208.561C176.871 206.812 177.151 204.271 178.888 202.872C180.625 201.473 183.178 201.741 184.576 203.478C185.136 204.178 198.273 220.684 192.212 236.526C187.386 249.162 176.323 256.517 166.485 253.65C162.207 252.403 158.966 249.08 157.346 244.278C156.355 241.328 156.017 237.936 156.262 234.474C145.514 243.8 131.316 254.839 124.182 254.979H124.1H124.112Z" fill="#F6C45F"/>
<path d="M381.684 255.701C380.355 255.701 379.062 255.048 378.292 253.848C373.186 245.874 367.311 241.176 363.29 238.647C361.401 237.458 360.83 234.952 362.019 233.063C363.208 231.175 365.714 230.604 367.603 231.793C370.121 233.378 373.256 235.686 376.532 238.892C376.8 235.231 377.5 230.918 378.933 226.011C381.836 216.021 387.175 208.595 393.971 205.087C398.027 203 402.271 202.545 405.919 203.816C409.265 204.982 412.33 208.012 413.345 213.316C421.784 204.282 431.215 201.193 438.174 205.471C447.08 210.962 443.921 225.311 437.206 236.316C431.413 245.816 423.206 253.626 422.857 253.953C421.236 255.491 418.672 255.421 417.133 253.789C415.594 252.169 415.664 249.604 417.285 248.066C417.366 247.996 425.072 240.652 430.282 232.096C435.47 223.586 437.171 214.366 433.919 212.361C430.585 210.321 423.556 212.967 416.574 222.001C413.893 225.463 411.363 230.732 409.591 234.847C408.262 238.472 407.108 241.118 407.027 241.305C406.152 243.298 403.856 244.242 401.828 243.45C399.799 242.645 398.773 240.384 399.496 238.332C399.578 238.087 400.534 235.43 402.049 231.898C403.052 229.158 404.147 225.859 404.87 222.793C406.012 217.979 405.838 212.372 403.25 211.463C401.746 210.938 399.718 211.241 397.678 212.291C392.945 214.727 388.947 220.555 386.697 228.272C382.605 242.331 385.438 250.129 385.461 250.211C386.184 252.146 385.345 254.349 383.491 255.281C382.908 255.573 382.279 255.713 381.661 255.713L381.684 255.701Z" fill="#F6C45F"/>
<path d="M572.637 255.119C571.308 255.119 570.014 254.466 569.245 253.265C564.5 245.852 559.092 241.305 555.385 238.799C553.531 237.54 553.042 235.022 554.301 233.169C555.559 231.315 558.077 230.826 559.931 232.085C562.612 233.903 565.141 235.966 567.508 238.275C567.776 234.626 568.475 230.313 569.898 225.405C572.8 215.427 578.139 207.99 584.935 204.481C588.992 202.394 593.235 201.94 596.883 203.21C600.229 204.376 603.295 207.407 604.309 212.711C612.76 203.677 622.179 200.588 629.138 204.877C638.044 210.368 634.885 224.718 628.171 235.722C622.377 245.222 614.171 253.032 613.833 253.359C612.201 254.897 609.648 254.827 608.109 253.195C606.57 251.575 606.64 249.011 608.261 247.472C608.342 247.402 616.047 240.058 621.258 231.502C626.445 222.992 628.147 213.772 624.895 211.767C621.561 209.715 614.532 212.361 607.549 221.407C604.868 224.869 602.327 230.161 600.555 234.276C599.226 237.878 598.084 240.513 597.991 240.711C597.116 242.704 594.82 243.648 592.792 242.844C590.763 242.04 589.738 239.778 590.46 237.727C590.542 237.482 591.498 234.824 593.013 231.292C594.016 228.553 595.112 225.265 595.834 222.188C596.977 217.374 596.802 211.755 594.214 210.857C592.71 210.333 590.67 210.636 588.642 211.685C583.909 214.121 579.911 219.95 577.673 227.667C573.581 241.725 576.414 249.524 576.437 249.605C577.171 251.54 576.32 253.743 574.467 254.676C573.884 254.967 573.255 255.107 572.637 255.107V255.119Z" fill="#F6C45F"/>
<path d="M815.206 254.653C813.178 254.653 811.429 253.137 811.184 251.074C810.928 248.848 812.513 246.843 814.74 246.574C817.677 246.225 824.8 243.788 839.394 231.327C848.02 223.96 855.003 216.686 855.073 216.616C856.553 215.066 858.978 214.938 860.61 216.325C862.242 217.7 862.522 220.113 861.251 221.827C857.509 226.874 855.982 234.987 857.766 240.291C858.535 242.564 859.782 243.975 861.496 244.476C866.345 245.887 873.806 241.609 877.384 232.236C881.767 220.778 871.113 207.302 871.008 207.162C869.609 205.414 869.889 202.873 871.626 201.474C873.363 200.075 875.915 200.343 877.314 202.08C877.874 202.779 891.011 219.286 884.95 235.127C880.124 247.764 869.061 255.119 859.223 252.251C854.945 251.004 851.704 247.682 850.084 242.879C849.151 240.128 848.801 236.981 848.965 233.763C839.079 242.658 825.266 253.51 815.672 254.641C815.509 254.664 815.358 254.664 815.194 254.664L815.206 254.653Z" fill="#F6C45F"/>
<path d="M716.949 310.882C715.69 310.882 714.455 310.299 713.662 309.203C713.662 309.192 713.161 308.539 712.193 307.466C710.666 305.811 707.81 303.06 703.241 299.773C702.67 299.377 702.063 298.98 701.446 298.584C690.5 291.613 677.607 288.186 663.187 288.407C628.788 288.92 618.879 297.36 618.786 297.441C617.177 298.992 614.648 298.922 613.086 297.302C611.536 295.693 611.617 293.093 613.226 291.543C614.356 290.447 625.384 280.854 663.071 280.294C666.043 280.247 668.911 280.352 671.65 280.574C667.384 276.424 664.342 271.458 662.57 265.723C658.968 254.124 661.264 242.048 664.446 232.885C664.656 232.209 664.889 231.545 665.169 230.88C665.181 230.845 665.192 230.822 665.204 230.787C667.57 224.539 670.205 219.923 671.231 218.209C677.584 207.52 690.535 198.998 701.993 204.337C705.118 205.794 707.426 208.441 708.65 211.996C710.631 217.731 709.582 225.308 705.77 232.792C698.018 248.004 687.958 255.966 677.467 255.243C674.238 255.022 671.266 253.728 668.888 251.595C668.736 255.616 669.133 259.603 670.298 263.333C672.793 271.388 678.633 277.543 687.655 281.635C695.71 285.283 701.97 288.99 706.773 292.336C713.254 296.625 717.311 300.927 719.129 303.072C719.852 303.911 720.213 304.424 720.283 304.529C721.554 306.359 721.111 308.854 719.292 310.148C718.581 310.649 717.765 310.894 716.949 310.894V310.882ZM672.268 234.983C671.207 238.201 671.452 241.5 672.979 243.971C674.157 245.894 675.963 247.025 678.038 247.177C687.877 247.841 695.664 234.785 698.555 229.132C701.329 223.688 702.238 218.279 700.991 214.654C700.49 213.208 699.674 212.206 698.578 211.693C691.689 208.487 682.794 214.607 678.178 222.382C676.243 225.576 674.366 229.388 672.793 233.538C672.746 233.69 672.7 233.853 672.63 234.004C672.583 234.109 672.536 234.226 672.501 234.331C672.42 234.552 672.338 234.774 672.268 234.983Z" fill="#F6C45F"/>
<path d="M808.503 310.882C807.244 310.882 806.009 310.299 805.216 309.203C805.216 309.192 804.715 308.527 803.735 307.455C802.208 305.799 799.364 303.048 794.806 299.773C794.223 299.376 793.629 298.98 792.999 298.572C782.053 291.613 769.219 288.186 754.741 288.396C744.378 288.547 735.227 289.433 727.534 291.018C725.342 291.473 723.198 290.063 722.743 287.871C722.288 285.68 723.699 283.535 725.89 283.08C734.085 281.39 743.749 280.457 754.613 280.294C757.585 280.247 760.453 280.352 763.181 280.574C758.914 276.424 755.872 271.458 754.1 265.723C750.498 254.113 752.795 242.036 755.977 232.874C756.187 232.197 756.42 231.533 756.7 230.88C756.7 230.857 756.723 230.834 756.735 230.799C759.101 224.539 761.735 219.923 762.773 218.209C769.126 207.52 782.065 198.998 793.536 204.337C796.66 205.794 798.968 208.441 800.192 211.996C802.173 217.731 801.124 225.308 797.312 232.792C789.561 248.004 779.477 255.966 769.009 255.243C765.78 255.022 762.808 253.728 760.43 251.595C760.278 255.616 760.675 259.603 761.84 263.322C764.335 271.376 770.175 277.531 779.198 281.623C787.252 285.283 793.524 288.99 798.315 292.324C804.785 296.602 808.829 300.892 810.648 303.048C811.371 303.899 811.744 304.412 811.802 304.506C813.073 306.336 812.63 308.83 810.811 310.124C810.1 310.625 809.284 310.87 808.468 310.87L808.503 310.882ZM763.834 234.96C762.761 238.189 763.006 241.488 764.533 243.971C765.722 245.883 767.517 247.025 769.592 247.177C779.419 247.841 787.217 234.785 790.108 229.132C792.883 223.688 793.792 218.279 792.545 214.654C792.043 213.208 791.227 212.206 790.132 211.693C783.242 208.487 774.348 214.607 769.732 222.382C767.797 225.576 765.92 229.388 764.347 233.526C764.3 233.678 764.253 233.841 764.183 233.993C764.137 234.109 764.09 234.226 764.043 234.342C763.974 234.541 763.904 234.75 763.822 234.949L763.834 234.96Z" fill="#F6C45F"/>
<path d="M393.842 129.479C392.373 129.479 390.951 128.675 390.229 127.276C389.214 125.283 389.995 122.847 391.989 121.821C395.824 119.862 397.013 117.578 397.188 115.678C395.486 115.678 394.297 114.978 393.702 114.547C391.767 113.101 390.916 110.502 391.581 108.066C392.175 105.874 393.947 104.312 396.08 104.079C399.449 103.706 402.608 106.305 403.867 108.94C406.14 113.684 406.98 123.255 395.684 129.036C395.089 129.339 394.46 129.479 393.842 129.479Z" fill="#F6C45F"/>
</svg>
