<svg width="165" height="32" viewBox="0 0 165 32" fill="none" xmlns="http://www.w3.org/2000/svg">
<path d="M155.109 8.34586C155.595 8.67261 156.241 8.53713 156.568 8.05896L158.974 4.43287C159.636 3.44466 159.365 2.10579 158.385 1.44433C157.404 0.782865 156.066 1.04586 155.412 2.04204L154.217 3.83516C153.22 5.33342 153.627 7.35765 155.109 8.35383" fill="white"/>
<path d="M156.442 11.2327C156.554 11.8065 157.104 12.1731 157.678 12.0616L161.925 11.2088C163.089 10.9777 163.838 9.83808 163.607 8.67454C163.376 7.50304 162.244 6.74594 161.088 6.97705L158.985 7.39943C157.231 7.75009 156.092 9.46352 156.442 11.2327Z" fill="white"/>
<path d="M159.844 13.3116C158.354 12.3154 156.346 12.7139 155.35 14.2121C155.031 14.6983 155.158 15.3518 155.637 15.6785L159.239 18.1012C160.227 18.7627 161.558 18.4997 162.211 17.5035C162.873 16.5153 162.602 15.1764 161.622 14.515L159.837 13.3196L159.844 13.3116Z" fill="white"/>
<path d="M151.657 16.7788L152.501 21.0504C152.733 22.2219 153.864 22.979 155.02 22.7479C156.183 22.5168 156.932 21.3771 156.701 20.2136L156.279 18.1017C155.928 16.3405 154.223 15.1929 152.47 15.5435C151.904 15.6551 151.529 16.2129 151.641 16.7867" fill="white"/>
<path d="M148.073 14.7375L145.666 18.3635C145.013 19.3518 145.276 20.6906 146.256 21.3521C147.236 22.0136 148.575 21.7506 149.229 20.7544L150.424 18.9613C151.42 17.463 151.014 15.4467 149.531 14.4426C149.045 14.1158 148.4 14.2513 148.073 14.7295" fill="white"/>
<path d="M141.029 14.1238C141.26 15.2953 142.391 16.0524 143.547 15.8213L145.651 15.3989C147.404 15.0482 148.544 13.3348 148.193 11.5656C148.082 10.9918 147.524 10.6252 146.958 10.7368L142.71 11.5895C141.547 11.8206 140.798 12.9602 141.029 14.1238Z" fill="white"/>
<path d="M143.011 8.2905L144.796 9.48591C146.286 10.4821 148.294 10.0836 149.291 8.58537C149.609 8.09923 149.482 7.44574 149.004 7.11899L145.402 4.69628C144.413 4.03482 143.082 4.29781 142.429 5.29399C141.768 6.2822 142.038 7.62107 143.019 8.28253" fill="white"/>
<path d="M163.741 28.1113H141.211C140.725 28.1113 140.327 28.5098 140.327 28.9959V30.8688C140.327 31.3549 140.725 31.7534 141.211 31.7534H163.741C164.227 31.7534 164.625 31.3549 164.625 30.8688V28.9959C164.625 28.5098 164.235 28.1113 163.741 28.1113Z" fill="white"/>
<path d="M148.343 4.69566C148.694 6.4569 150.399 7.6045 152.152 7.25385C152.718 7.14228 153.093 6.58442 152.973 6.01062L152.128 1.739C151.897 0.567489 150.766 -0.189608 149.61 0.0415058C148.447 0.27262 147.697 1.41225 147.929 2.57579L148.343 4.68769V4.69566Z" fill="white"/>
<path d="M10.432 9.54297C4.97293 9.54297 0.725219 12.0055 0.725219 17.0183C0.725219 18.3253 1.42653 19.0505 4.08832 19.0505C6.75012 19.0505 7.44346 18.3333 7.44346 17.0183C7.44346 12.1251 9.71475 12.2127 10.432 12.2127C12.8388 12.2127 14.1458 16.046 14.1458 20.7719C14.1458 25.4978 12.8467 29.3391 10.432 29.3391C9.71475 29.3391 6.71824 29.4267 6.71824 24.5335C6.71824 23.2265 6.01693 22.5013 3.35513 22.5013C0.693341 22.5013 0 23.2185 0 24.5335C0 29.8571 4.97293 32.0009 10.432 32.0009C17.206 32.0009 20.864 26.9721 20.864 20.7719C20.864 14.5717 17.206 9.54297 10.432 9.54297Z" fill="white"/>
<path d="M57.014 9.54117C51.5629 9.54117 47.3073 12.0037 47.3073 17.0085C47.3073 18.3155 48.0086 19.0407 50.6704 19.0407C53.3321 19.0407 54.0255 18.3235 54.0255 17.0085C54.0255 12.1153 56.2968 12.203 57.014 12.203C59.4208 12.203 60.7278 16.0363 60.7278 20.7621C60.7278 25.488 59.4288 29.3293 57.014 29.3293C56.2968 29.3293 53.3003 29.417 53.3003 24.5237C53.3003 23.2167 52.599 22.4915 49.9372 22.4915C47.2754 22.4915 46.582 23.2088 46.582 24.5237C46.582 29.8473 51.555 31.9911 57.014 31.9911C63.7881 31.9911 67.446 26.9624 67.446 20.7621C67.446 14.5619 63.7881 9.5332 57.014 9.5332" fill="white"/>
<path d="M126.178 9.6543C119.866 9.6543 116.137 13.6151 116.137 20.7557C116.137 24.7564 117.189 27.8326 117.858 29.6417C118.631 31.7376 119.444 31.8811 120.807 31.8811C122.696 31.8811 124.481 32.1281 123.732 28.3028C123.293 26.0474 122.672 23.1545 122.672 20.7717C122.672 16.2131 122.927 12.2922 126.178 12.2922C129.43 12.2922 129.685 16.2131 129.685 20.7717C129.685 23.1466 129.063 26.0395 128.625 28.3028C127.884 32.1281 129.661 31.8811 131.55 31.8811C132.912 31.8811 133.725 31.7376 134.498 29.6417C135.168 27.8246 136.22 24.7564 136.22 20.7557C136.22 13.6151 132.482 9.6543 126.178 9.6543Z" fill="white"/>
<path d="M37.8235 19.9986V19.7993C41.5213 19.114 43.1709 17.2093 43.1709 14.8264C43.1709 11.6067 38.5487 9.55859 33.6156 9.55859C28.6825 9.55859 24.0523 11.5191 24.0523 15.7429C24.0921 17.6874 24.6022 17.8229 27.1603 17.8229C29.7185 17.8229 30.2764 17.3926 30.2764 15.1771C30.2764 12.579 32.8904 12.2124 33.6076 12.2124C35.9586 12.2124 36.9548 14.0295 36.9548 15.4002C36.9548 20.3891 31.5276 17.791 31.5276 19.895C31.5276 21.9989 37.3214 19.5124 37.3214 25.3461C37.3214 27.4022 36.0224 29.3228 33.6156 29.3228C32.8983 29.3228 29.9018 29.4105 29.9018 24.5172C29.9018 23.2102 29.2005 22.485 26.5467 22.485C23.8929 22.485 23.1836 23.2023 23.1836 24.5172C23.1836 29.6575 28.1645 31.9846 33.6156 31.9846C40.3816 31.9846 44.0396 28.9403 44.0396 25.5373C44.0396 22.9233 41.8799 20.6919 37.8235 19.9906" fill="white"/>
<path d="M87.6484 9.54117C84.0462 9.54117 83.8231 10.4975 83.8231 12.203C83.8231 12.6413 83.8231 13.765 83.8231 13.765C82.3726 13.1434 79.5753 12.6652 77.4794 12.8724C74.3952 13.1673 71.2871 14.1794 71.2871 16.6579C71.2871 19.4073 73.5584 19.2081 74.6104 19.2081C77.2483 19.2081 77.575 18.2279 77.9257 17.2875C78.4198 15.9645 79.3283 15.5262 80.5715 15.5262C83.2811 15.5262 83.8948 19.3276 83.8948 22.4278C83.8948 26.1017 82.6834 29.3293 79.9658 29.3293C79.2486 29.3293 76.2521 29.417 76.2521 24.5237C76.2521 23.2167 75.5508 22.4915 72.889 22.4915C70.2272 22.4915 69.5259 23.2088 69.5259 24.5237C69.5259 29.5923 74.5068 31.9911 79.9579 31.9911C86.7319 31.9911 90.3899 27.4804 90.3899 20.7621V12.0834C90.3899 10.6728 90.629 9.5332 87.6484 9.5332" fill="white"/>
<path d="M110.083 19.2418C110.083 18.931 110.418 18.7796 110.418 18.3333C110.418 17.6638 109.764 17.5762 107.971 17.5762C105.979 17.5762 105.325 17.7834 105.325 19.0266C105.325 21.0827 107.549 21.6167 107.549 25.0834C107.549 27.4503 106.21 29.3311 104.042 29.3311C100.408 29.3311 100.328 25.3543 100.328 20.7639V12.2048C100.328 10.4913 99.9457 9.54297 96.3515 9.54297C93.371 9.54297 93.61 10.6826 93.61 12.0932V20.9791C93.61 28.1436 96.8775 32.0009 104.042 32.0009C109.254 32.0009 113.717 28.8689 113.717 25.0834C113.717 20.7719 110.083 20.2061 110.083 19.2418Z" fill="white"/>
</svg>
