<svg width="38" height="27" viewBox="0 0 38 27" fill="none" xmlns="http://www.w3.org/2000/svg">
<path d="M7.65826 13.2394C7.52821 12.9829 7.1453 13.0768 7.1453 13.3694V22.9061C7.1453 25.1819 6.71542 25.9767 3.40287 25.9767C0.913933 25.9767 0 25.4781 0 23.2276V4.06393C0 0.700803 1.35464 0.00723183 4.54799 0.00723183C7.95447 0.00723183 8.07368 0.516576 9.77511 3.66296C10.783 5.52334 13.0552 9.83653 14.0702 11.7692C14.2039 12.022 14.5796 11.9245 14.5796 11.6355V3.22947C14.5796 1.02953 14.8433 0 17.9897 0C21.4865 0 21.7249 0.885039 21.7249 3.3234V21.2155C21.7249 24.6545 21.3239 25.9694 17.9283 25.9694C14.9697 25.9694 14.2834 25.9694 12.6759 22.9567C11.3537 20.4714 8.7492 15.3888 7.64742 13.2322L7.65826 13.2394Z" fill="#014E4D"/>
<path d="M27.4838 19.3253C28.488 19.8202 29.644 20.0695 30.9264 20.0695C32.057 20.0695 33.1299 19.8022 34.1125 19.2784C35.0987 18.751 35.9006 17.996 36.4967 17.0351C37.0963 16.0706 37.3998 14.9435 37.3998 13.6864C37.3998 12.5015 37.1144 11.4359 36.5472 10.522C35.9801 9.60802 35.1745 8.89276 34.1486 8.39063C33.1372 7.89574 31.974 7.64648 30.6952 7.64648C29.5609 7.64648 28.4916 7.9138 27.5091 8.4376C26.5229 8.96501 25.7245 9.72 25.1357 10.6809C24.5469 11.6454 24.2471 12.7725 24.2471 14.026C24.2471 15.2108 24.5324 16.2765 25.0996 17.1904C25.6667 18.1044 26.4687 18.8196 27.4838 19.3217V19.3253ZM29.6584 13.0614C29.6584 12.2812 29.756 11.7032 29.9474 11.3347C30.1064 11.0349 30.3123 10.9012 30.6193 10.9012C30.9842 10.9012 31.284 11.2047 31.5296 11.8296C31.8186 12.5593 31.9631 13.5094 31.9631 14.6581C31.9631 15.4384 31.8656 16.0164 31.6741 16.3848C31.5152 16.6847 31.3093 16.8183 31.0022 16.8183C30.8613 16.8183 30.4351 16.8183 30.0775 15.9044C29.7993 15.1855 29.6548 14.2283 29.6548 13.0579L29.6584 13.0614Z" fill="#014E4D"/>
<path d="M36.4959 22.0117C36.4201 21.7227 36.1997 21.5421 36.0444 21.4337C35.8493 21.2965 35.6795 21.2206 35.5097 21.1917C35.4411 21.1808 35.3291 21.1664 34.9932 21.1411C34.8234 21.1303 34.6717 21.123 34.5308 21.123C34.4585 21.123 34.3899 21.1231 34.3249 21.1267C34.1659 21.1339 33.8986 21.1411 33.5301 21.152H33.5193C32.4934 21.1917 31.6047 21.2134 30.8787 21.2134C30.3946 21.2134 29.8925 21.2061 29.3759 21.1953C28.8593 21.1845 28.4511 21.17 28.1549 21.1592C27.8443 21.1447 27.5228 21.1411 27.2012 21.1411C26.8797 21.1411 26.6305 21.1447 26.4643 21.1556C26.2548 21.1664 26.0344 21.2098 25.8069 21.2892C25.5107 21.3904 25.312 21.5168 25.1711 21.6902C25.0699 21.8166 24.9796 21.9828 24.9002 22.1996C24.8207 22.4091 24.7737 22.6403 24.7593 22.8823C24.7484 23.0701 24.7412 23.3049 24.7412 23.6048C24.7412 23.9046 24.7484 24.1466 24.7593 24.3273C24.7737 24.5476 24.8135 24.768 24.8821 24.9811C24.9616 25.2267 25.0519 25.4037 25.1675 25.541C25.2975 25.6963 25.489 25.8192 25.7635 25.9203C25.9875 26.007 26.2115 26.054 26.421 26.0648C26.5799 26.0756 26.8183 26.0793 27.1435 26.0829C27.2121 26.0829 27.2771 26.0829 27.3421 26.0829C27.6022 26.0829 27.8587 26.0756 28.1043 26.0612C28.3897 26.0467 28.7943 26.0323 29.3037 26.0251C29.8275 26.0178 30.3332 26.0142 30.81 26.0142C31.4025 26.0142 32.0202 26.0215 32.6451 26.0395C33.2628 26.054 33.7108 26.0793 33.9853 26.1045C34.1406 26.119 34.2996 26.1262 34.4621 26.1262C34.6428 26.1262 34.8306 26.1154 35.0148 26.0973C35.4844 26.0467 35.6578 25.9998 35.759 25.9637C36.0046 25.877 36.2105 25.6783 36.3912 25.3568C36.5429 25.0858 36.6223 24.8005 36.6296 24.5043C36.6332 24.3092 36.6368 24.0057 36.6368 23.5975V22.9726C36.6368 22.7956 36.6151 22.6041 36.5682 22.3874C36.5248 22.1923 36.4995 22.0803 36.4815 22.0117H36.4959Z" fill="#014E4D"/>
</svg>
