<svg width="37" height="36" viewBox="0 0 37 36" fill="none" xmlns="http://www.w3.org/2000/svg">
<path d="M18.332 0.220703C8.51864 0.220703 0.554199 8.18515 0.554199 17.9985C0.554199 27.8118 8.51864 35.7763 18.332 35.7763C28.1453 35.7763 36.1098 27.8118 36.1098 17.9985C36.1098 8.18515 28.1453 0.220703 18.332 0.220703ZM18.332 32.2207C10.492 32.2207 4.10975 25.8385 4.10975 17.9985C4.10975 10.1585 10.492 3.77626 18.332 3.77626C26.172 3.77626 32.5542 10.1585 32.5542 17.9985C32.5542 25.8385 26.172 32.2207 18.332 32.2207Z" fill="white"/>
<path d="M14.1469 11.6261V24.4432C14.1469 24.8017 14.3037 25.0706 14.6174 25.2498C14.9311 25.4291 15.2374 25.4142 15.5361 25.205L25.5298 18.7965C25.7987 18.6172 25.9332 18.3633 25.9332 18.0347C25.9332 17.706 25.7987 17.4521 25.5298 17.2728L15.5361 10.8643C15.2374 10.6551 14.9311 10.6402 14.6174 10.8195C14.3037 10.9987 14.1469 11.2676 14.1469 11.6261Z" fill="white"/>
</svg>
