<svg width="21" height="20" viewBox="0 0 21 20" fill="none" xmlns="http://www.w3.org/2000/svg">
<path d="M0.5 9.7C0.5 4.12625 4.86625 0 10.5 0C16.1337 0 20.5 4.12625 20.5 9.7C20.5 15.2737 16.1337 19.4 10.5 19.4C9.4875 19.4 8.5175 19.2662 7.605 19.0162C7.42805 18.9671 7.23959 18.9804 7.07125 19.0537L5.08625 19.9312C4.96636 19.9841 4.83532 20.0068 4.70465 19.9971C4.57397 19.9875 4.44766 19.9459 4.33681 19.8761C4.22596 19.8062 4.13396 19.7102 4.06892 19.5964C4.00387 19.4827 3.96775 19.3547 3.96375 19.2237L3.90875 17.445C3.90488 17.3367 3.87906 17.2304 3.83286 17.1324C3.78667 17.0344 3.72105 16.9469 3.64 16.875C1.695 15.135 0.5 12.615 0.5 9.7ZM7.4325 7.87625L4.495 12.5362C4.21375 12.9837 4.7625 13.4875 5.18375 13.1687L8.34 10.7737C8.44381 10.6949 8.57047 10.652 8.70083 10.6516C8.83119 10.6511 8.95815 10.6931 9.0625 10.7712L11.3988 12.5237C11.5645 12.6481 11.7542 12.7367 11.9559 12.784C12.1577 12.8314 12.367 12.8364 12.5707 12.7988C12.7745 12.7612 12.9683 12.6818 13.1398 12.5657C13.3114 12.4495 13.457 12.299 13.5675 12.1237L16.505 7.46375C16.7875 7.01625 16.2375 6.5125 15.8162 6.83125L12.66 9.22625C12.5562 9.3051 12.4295 9.34799 12.2992 9.34844C12.1688 9.34889 12.0419 9.30688 11.9375 9.22875L9.60125 7.475C9.43549 7.35069 9.24577 7.26208 9.04406 7.21473C8.84235 7.16739 8.63301 7.16235 8.42925 7.19993C8.2255 7.23751 8.03174 7.3169 7.86018 7.43309C7.68863 7.54927 7.54301 7.70099 7.4325 7.87625Z" fill="black"/>
</svg>
