<svg width="242" height="24" viewBox="0 0 242 24" fill="none" xmlns="http://www.w3.org/2000/svg">
<path d="M85.2768 11.5454C85.3665 10.4918 86.1511 9.9986 87.6531 9.55025C91.1054 8.51904 92.1366 8.98981 92.4953 9.95377C92.854 10.9177 92.1366 11.6127 92.7195 12.9353C93.3023 14.2579 93.93 14.9081 93.93 17.2843C93.93 20.5797 92.0245 23.6958 84.5146 23.6958C77.0047 23.6958 75.6597 19.4364 75.6597 13.6527V3.56475C75.6597 1.63683 75.8838 0.179688 79.1344 0.179688C81.8693 0.179688 82.6764 0.829798 82.6764 3.56475V16.141C82.6764 18.0241 83.5058 18.9881 84.7836 18.9881C86.0614 18.9881 87.003 17.912 87.003 16.7687C87.003 14.37 85.0751 13.4509 85.2544 11.523L85.2768 11.5454Z" fill="#F9F9F9"/>
<path d="M23.2471 0.224176C19.9965 0.224176 17.3288 1.5244 15.8941 2.39868C14.2576 0.874287 12.0831 0 9.61716 0C3.99033 0 0 4.43869 0 10.9174C0 11.164 0 12.5539 0 12.8005C0.336264 19.0998 3.85583 23.7178 9.59474 23.7178C15.3336 23.7178 18.8532 18.8756 19.1895 12.5987C19.1895 12.3521 19.1895 11.164 19.1895 10.9174C19.1895 9.34814 18.9429 7.891 18.5169 6.59078C18.4497 6.38902 18.3824 6.20968 18.3152 6.03034C19.1895 5.4699 20.2879 4.93188 21.3416 4.93188C23.4712 4.93188 24.2334 6.63561 24.2334 8.72045C24.2334 13.7868 20.3552 17.0598 19.8844 19.7051C19.4585 22.1038 20.9605 22.6866 22.6866 23.2471C26.4079 24.48 28.1117 23.3367 29.2774 20.9156C30.7345 17.8893 31.2726 13.8317 31.2726 9.77408C31.2726 5.06638 28.6945 0.224176 23.2471 0.224176ZM9.61716 18.8084C7.64441 18.8084 7.01671 15.6923 7.01671 12.2176C7.01671 12.1503 7.01671 10.6708 7.01671 10.6035C7.06155 7.21847 8.07034 4.79737 9.70683 4.79737C11.5002 4.79737 12.2624 7.33056 12.3073 10.7156C12.3073 10.7829 12.3073 12.1503 12.3073 12.2176C12.3073 15.6923 11.5675 18.8084 9.61716 18.8084Z" fill="#F9F9F9"/>
<path d="M45.3733 15.8935C45.3733 14.5036 45.0594 12.755 41.7865 10.3115C37.1012 6.81434 36.7425 5.04335 36.8546 3.96731C37.0115 2.48775 38.379 1.54621 39.9258 0.963347C42.4142 0.0218078 44.4766 -0.000609875 45.1267 1.12027C45.5975 1.90489 44.6559 3.00335 45.2388 4.01214C46.8304 6.72467 52.4124 9.28028 52.4124 14.6381C52.4124 19.3458 49.4757 23.493 43.3557 23.493C38.0203 23.493 34.9939 20.9374 33.5816 18.9647C32.1693 16.9919 32.4383 15.3779 34.2541 14.0552C36.7873 12.1946 38.9394 12.1722 40.1051 13.8311C41.2709 15.49 40.8449 19.0095 43.2436 19.0095C44.6335 19.0095 45.3733 17.4403 45.3733 15.8935Z" fill="#F9F9F9"/>
<path d="M69.6519 11.9742V11.7724C69.6519 11.7724 73.037 11.212 73.037 6.48184C73.037 3.38821 70.3245 0.115234 63.5768 0.115234C59.4295 0.115234 56.4255 1.84139 55.1253 4.0159C53.8699 6.12316 54.4528 7.42338 56.5825 8.49942C58.4207 9.41855 60.0572 9.39613 61.0212 8.14074C62.0299 6.84052 61.8506 4.73326 63.8009 4.73326C65.1908 4.73326 66.0427 5.6748 66.0427 7.31129C66.0427 8.45459 65.7288 9.97898 64.0475 9.97898C62.3662 9.97898 61.5592 9.93415 61.5592 11.1223V12.6018C61.5592 13.79 62.3214 13.7451 64.0475 13.7451C65.7737 13.7451 66.0427 15.292 66.0427 16.4128C66.0427 18.0493 65.1908 18.9909 63.8009 18.9909C61.873 18.9909 62.0299 16.8836 61.0212 15.5834C60.0572 14.328 58.4207 14.3056 56.5825 15.2247C54.4528 16.3008 53.8699 17.601 55.1253 19.7082C56.448 21.9052 59.4519 23.6089 63.5768 23.6089C70.302 23.6089 73.037 20.3359 73.037 17.2423C73.037 12.5122 69.6519 11.9517 69.6519 11.9517V11.9742Z" fill="#F9F9F9"/>
<path d="M241.4 14.1914C241.4 19.4819 239.158 23.674 232.455 23.674C228.779 23.674 225.909 21.9255 224.295 20.1545C222.883 18.6077 222.815 16.8143 224.654 14.9312C226.447 13.0929 227.859 12.9584 229.092 13.8551C230.617 14.9536 229.922 18.9215 232.5 18.9215C233.89 18.9215 234.271 17.7334 234.271 17.4195V7.37644C234.271 6.47973 233.89 5.2916 232.5 5.2916C229.922 5.2916 230.639 9.25952 229.092 10.358C227.859 11.2323 226.447 11.0978 224.654 9.28193C222.838 7.39885 222.883 5.60545 224.295 4.05863C225.909 2.28764 228.801 0.539062 232.455 0.539062C239.18 0.539062 241.4 4.70874 241.4 10.0217V14.2362V14.1914Z" fill="#F9F9F9"/>
<path d="M110.952 0.201084C107.993 0.201084 105.796 1.03054 104.249 1.79273C101.917 2.93603 100.348 3.89999 101.178 6.61252C101.536 7.80065 102.411 9.54923 104.697 9.03363C105.975 8.76461 106.984 7.48681 107.97 6.59011C109.36 5.35714 110.1 5.13296 111.176 5.13296C112.476 5.13296 113.149 5.73824 113.149 8.31626V10.6477C112.274 10.3114 111.109 10.0648 109.651 10.0648C106.692 10.0648 101.716 11.2978 101.716 16.5659C101.716 19.3457 103.262 23.7844 111.4 23.7844C119.538 23.7844 120.389 19.0319 120.389 14.2121V8.80945C120.389 2.71186 117.318 0.15625 110.974 0.15625L110.952 0.201084ZM111.086 19.8613C109.158 19.8613 108.665 18.0231 108.665 16.3418C108.665 14.6604 109.696 13.2033 111.31 13.2033C112.05 13.2033 112.655 13.4947 113.126 13.831V15.9383C113.126 17.7541 113.014 19.8613 111.086 19.8613Z" fill="#F9F9F9"/>
<path d="M215.037 7.01621C212.19 7.01621 210.531 7.8905 209.881 8.36127V3.85533C209.881 1.1428 209.544 0.246094 206.339 0.246094C202.841 0.246094 202.64 1.72566 202.64 3.65357V20.3323C202.64 22.7982 202.886 23.9415 206.182 23.9415C209.298 23.9415 209.881 23.0448 209.881 20.3323V11.7015C210.262 11.3652 211.203 10.6927 212.391 10.6927C213.804 10.6927 214.543 11.8808 214.543 13.2259C214.543 15.8039 213.467 17.4628 212.795 19.6822C212.077 22.0584 212.302 23.3138 215.238 23.8294C219.049 24.4795 219.52 23.1569 220.215 21.7222C221.112 19.8391 221.627 17.4628 221.627 14.7503C221.627 10.7375 219.789 7.06105 215.037 7.06105V7.01621Z" fill="#F9F9F9"/>
<path d="M164.731 6.9943V8.67562C164.731 9.68441 164.821 10.2224 166.457 10.2224C168.183 10.2224 168.407 9.7965 168.407 8.69804V6.97188C168.407 5.76133 169.214 5.0888 170.111 5.0888C171.165 5.0888 171.904 5.91825 171.904 7.48748V14.2576C171.904 17.7772 171.03 19.1446 168.609 19.1446C165.381 19.1446 165.359 14.6835 163.677 13.6523C162.377 12.8677 160.763 13.2264 158.656 14.5042C156.257 15.9838 156.616 18.0013 158.387 19.8844C161.032 22.6866 163.677 23.8748 169.035 23.8748C177.711 23.8748 179.011 18.3376 179.011 13.3385C179.011 10.9174 179.011 9.4154 179.011 7.42023C179.011 3.31781 177.195 0 172.936 0C167.735 0 166.883 2.6677 166.883 2.6677H166.614C166.614 2.6677 165.583 0.0448363 162.265 0.0448363C158.387 0.0448363 157.557 2.2866 156.548 3.02638C155.629 3.72132 154.486 3.31781 153.791 3.92308C152.737 4.81979 152.715 5.851 154.531 8.72045C155.607 10.4018 157.064 10.738 158.162 10.4466C159.575 10.0431 160.225 8.96705 160.83 7.68924C161.704 5.87342 162.175 5.0888 163.319 5.0888C164.193 5.0888 164.708 5.73891 164.708 6.9943H164.731Z" fill="#F9F9F9"/>
<path d="M143.547 0.359375C138.525 0.359375 137.337 4.03586 137.337 4.03586H137.247H137.158C137.158 4.03586 135.969 0.359375 130.948 0.359375C125.5 0.359375 122.922 5.20158 122.922 9.88686C122.922 13.9444 123.46 18.002 124.918 21.0284C126.083 23.4495 127.787 24.5928 131.508 23.3598C133.234 22.777 134.49 22.2166 134.064 19.8179C133.593 17.1726 129.961 14.1238 129.961 9.03499C129.961 6.95016 130.679 5.13433 132.427 5.13433C134.378 5.13433 134.759 7.30884 134.759 9.19192V12.1062C134.759 13.4513 135.005 14.2583 137.27 14.2583C139.534 14.2583 139.78 13.4513 139.78 12.1062V9.19192C139.78 7.30884 140.162 5.13433 142.112 5.13433C143.86 5.13433 144.578 6.95016 144.578 9.03499C144.578 14.1014 140.969 17.1726 140.475 19.8179C140.049 22.2166 141.305 22.7994 143.031 23.3598C146.752 24.5928 148.456 23.4495 149.622 21.0284C151.079 18.002 151.617 13.9444 151.617 9.88686C151.617 5.20158 149.039 0.359375 143.591 0.359375H143.547Z" fill="#F9F9F9"/>
<path d="M193.538 16.1376C193.538 14.7477 193.224 12.9992 189.951 10.5556C185.266 7.05849 184.907 5.28749 185.019 4.21145C185.176 2.73189 186.544 1.79035 188.09 1.20749C190.579 0.265948 192.641 0.243531 193.291 1.36441C193.762 2.14903 192.82 3.24749 193.403 4.25628C194.995 6.96882 200.577 9.52442 200.577 14.8822C200.577 19.5899 197.64 23.7372 191.52 23.7372C186.185 23.7372 183.158 21.1816 181.746 19.2088C180.334 17.2361 180.603 15.622 182.419 14.2994C184.952 12.4387 187.104 12.4163 188.27 14.0752C189.435 15.7341 189.009 19.2537 191.408 19.2537C192.798 19.2537 193.538 17.6844 193.538 16.1376Z" fill="#F9F9F9"/>
</svg>
